<svg width="36" height="36" viewBox="0 0 36 36" fill="none" xmlns="http://www.w3.org/2000/svg">
<path d="M11.91 26.805H2.08503C2.05097 26.8072 2.01683 26.8022 1.9849 26.7901C1.95296 26.7781 1.92396 26.7594 1.89982 26.7352C1.87569 26.7111 1.85698 26.6821 1.84495 26.6502C1.83291 26.6182 1.82783 26.5841 1.83003 26.55C1.82997 26.5172 1.83663 26.4847 1.84962 26.4546C1.86261 26.4245 1.88164 26.3973 1.90554 26.3748C1.92944 26.3523 1.9577 26.335 1.98857 26.3238C2.01945 26.3127 2.05227 26.308 2.08503 26.31H11.91C11.9428 26.308 11.9756 26.3127 12.0065 26.3238C12.0374 26.335 12.0656 26.3523 12.0895 26.3748C12.1134 26.3973 12.1325 26.4245 12.1454 26.4546C12.1584 26.4847 12.1651 26.5172 12.165 26.55C12.1672 26.5841 12.1622 26.6182 12.1501 26.6502C12.1381 26.6821 12.1194 26.7111 12.0952 26.7352C12.0711 26.7594 12.0421 26.7781 12.0102 26.7901C11.9782 26.8022 11.9441 26.8072 11.91 26.805Z" fill="#6C6D70"/>
<path d="M11.91 20.655C11.6512 20.6488 11.3966 20.5882 11.1628 20.4771C10.9289 20.3661 10.7211 20.2071 10.5527 20.0104C10.3844 19.8138 10.2593 19.5839 10.1856 19.3357C10.1119 19.0876 10.0913 18.8267 10.125 18.57C10.0959 18.3149 10.1199 18.0565 10.1955 17.8111C10.2711 17.5658 10.3967 17.3387 10.5644 17.1443C10.7321 16.9498 10.9382 16.7922 11.1698 16.6813C11.4013 16.5704 11.6534 16.5087 11.91 16.5C12.99 16.5 13.695 17.34 13.695 18.6C13.7242 18.8543 13.7002 19.112 13.6244 19.3566C13.5487 19.6011 13.4229 19.8272 13.255 20.0205C13.0871 20.2138 12.8808 20.37 12.6492 20.4793C12.4177 20.5885 12.1659 20.6483 11.91 20.655ZM11.91 16.965C10.965 16.965 10.62 17.79 10.62 18.57C10.62 19.35 10.965 20.16 11.91 20.16C12.855 20.16 13.2 19.335 13.2 18.57C13.2 17.805 12.87 16.965 11.91 16.965Z" fill="#6C6D70"/>
<path d="M5.17499 25.575H3.31499C3.26503 25.5747 3.21614 25.5605 3.17376 25.534C3.13139 25.5075 3.0972 25.4698 3.07499 25.425L1.39499 21.51C1.37073 21.4228 1.3676 21.331 1.38585 21.2423C1.40411 21.1536 1.44324 21.0706 1.49999 21C1.55035 20.9269 1.6175 20.867 1.69579 20.8253C1.77409 20.7835 1.86126 20.7611 1.94999 20.76H7.60499C7.74761 20.7595 7.88704 20.8022 8.00488 20.8825C8.12271 20.9629 8.21341 21.0771 8.26499 21.21L8.99999 23.145C9.02187 23.2067 9.01836 23.2745 8.99023 23.3336C8.9621 23.3927 8.91166 23.4381 8.84999 23.46C8.78833 23.4819 8.7205 23.4784 8.66143 23.4503C8.60235 23.4221 8.55687 23.3717 8.53499 23.31L7.79999 21.405C7.78488 21.3655 7.75817 21.3314 7.72338 21.3074C7.68858 21.2833 7.64732 21.2702 7.60499 21.27H1.88999L3.47999 25.08H5.17499C5.2401 25.0799 5.30279 25.1047 5.3502 25.1493C5.39762 25.1939 5.42616 25.255 5.42999 25.32C5.42999 25.3876 5.40313 25.4525 5.35531 25.5003C5.30748 25.5481 5.24262 25.575 5.17499 25.575Z" fill="#6C6D70"/>
<path d="M9.85501 26.805H6.07501C6.00738 26.805 5.94252 26.7781 5.8947 26.7303C5.84687 26.6825 5.82001 26.6176 5.82001 26.55V26.055C5.82395 25.7951 5.92999 25.5471 6.11522 25.3647C6.30046 25.1822 6.55002 25.08 6.81001 25.08H8.07001L8.35501 23.79C8.49526 23.1022 8.87228 22.4853 9.42043 22.0468C9.96859 21.6083 10.6532 21.3759 11.355 21.39H12.855C12.8878 21.39 12.9203 21.3966 12.9505 21.4096C12.9806 21.4226 13.0078 21.4416 13.0302 21.4655C13.0527 21.4894 13.0701 21.5177 13.0812 21.5486C13.0924 21.5794 13.0971 21.6123 13.095 21.645C13.095 21.6765 13.0888 21.7077 13.0767 21.7369C13.0647 21.766 13.047 21.7924 13.0247 21.8147C13.0024 21.837 12.976 21.8547 12.9469 21.8667C12.9177 21.8788 12.8865 21.885 12.855 21.885H11.355C10.7755 21.8889 10.2145 22.0901 9.76463 22.4555C9.31474 22.8209 9.00273 23.3286 8.88001 23.895L8.55001 25.395C8.53941 25.4506 8.50951 25.5006 8.4656 25.5363C8.42169 25.572 8.36658 25.591 8.31001 25.59H6.81001C6.6827 25.59 6.56061 25.6406 6.4706 25.7306C6.38058 25.8206 6.33001 25.9427 6.33001 26.07V26.325H9.66001L9.99001 24.825C10.0044 24.7627 10.0417 24.708 10.0945 24.6719C10.1473 24.6358 10.2117 24.6208 10.275 24.63C10.3404 24.6444 10.3975 24.6839 10.434 24.7401C10.4704 24.7962 10.4834 24.8644 10.47 24.93L10.095 26.61C10.0844 26.6656 10.0545 26.7156 10.0106 26.7513C9.96669 26.787 9.91158 26.806 9.85501 26.805Z" fill="#6C6D70"/>
<path d="M33.915 26.805H24.09C24.0559 26.8072 24.0218 26.8022 23.9898 26.7901C23.9579 26.7781 23.9289 26.7594 23.9048 26.7352C23.8806 26.7111 23.8619 26.6821 23.8499 26.6502C23.8379 26.6182 23.8328 26.5841 23.835 26.55C23.8349 26.5172 23.8416 26.4847 23.8546 26.4546C23.8676 26.4245 23.8866 26.3973 23.9105 26.3748C23.9344 26.3523 23.9626 26.335 23.9935 26.3238C24.0244 26.3127 24.0572 26.308 24.09 26.31H33.915C33.9477 26.308 33.9806 26.3127 34.0114 26.3238C34.0423 26.335 34.0706 26.3523 34.0945 26.3748C34.1184 26.3973 34.1374 26.4245 34.1504 26.4546C34.1634 26.4847 34.17 26.5172 34.17 26.55C34.1722 26.5841 34.1671 26.6182 34.1551 26.6502C34.143 26.6821 34.1243 26.7111 34.1002 26.7352C34.076 26.7594 34.047 26.7781 34.0151 26.7901C33.9832 26.8022 33.949 26.8072 33.915 26.805Z" fill="#6C6D70"/>
<path d="M24.09 20.655C23.8312 20.6488 23.5766 20.5882 23.3428 20.4771C23.1089 20.3661 22.9011 20.207 22.7327 20.0104C22.5644 19.8137 22.4393 19.5839 22.3656 19.3357C22.2919 19.0875 22.2712 18.8266 22.305 18.57C22.305 17.31 23.01 16.47 24.09 16.47C24.3495 16.4783 24.6043 16.5408 24.8382 16.6535C25.0721 16.7662 25.2797 16.9266 25.4479 17.1244C25.616 17.3222 25.7409 17.553 25.8144 17.802C25.888 18.0509 25.9086 18.3126 25.875 18.57C25.9087 18.8266 25.8881 19.0875 25.8144 19.3357C25.7407 19.5839 25.6156 19.8137 25.4473 20.0104C25.2789 20.207 25.0711 20.3661 24.8372 20.4771C24.6034 20.5882 24.3488 20.6488 24.09 20.655ZM24.09 16.965C23.13 16.965 22.8 17.79 22.8 18.57C22.8 19.35 23.13 20.16 24.09 20.16C25.05 20.16 25.38 19.335 25.38 18.57C25.38 17.805 25.035 16.965 24.09 16.965Z" fill="#6C6D70"/>
<path d="M32.685 25.5749H30.825C30.7574 25.5749 30.6925 25.5481 30.6447 25.5003C30.5969 25.4524 30.57 25.3876 30.57 25.3199C30.5738 25.2549 30.6024 25.1939 30.6498 25.1493C30.6972 25.1046 30.7599 25.0798 30.825 25.0799H32.535L34.14 21.315H28.395C28.3527 21.3152 28.3114 21.3282 28.2766 21.3523C28.2418 21.3764 28.2151 21.4104 28.2 21.45L27.48 23.3549C27.4692 23.3855 27.4524 23.4136 27.4307 23.4376C27.409 23.4617 27.3828 23.4813 27.3536 23.4952C27.3243 23.5091 27.2926 23.5171 27.2602 23.5188C27.2279 23.5205 27.1955 23.5158 27.165 23.5049C27.1345 23.4941 27.1064 23.4774 27.0823 23.4557C27.0582 23.434 27.0387 23.4078 27.0248 23.3785C27.0108 23.3493 27.0028 23.3176 27.0011 23.2852C26.9994 23.2528 27.0042 23.2205 27.015 23.1899L27.735 21.27C27.7866 21.137 27.8773 21.0228 27.9951 20.9425C28.1129 20.8621 28.2524 20.8194 28.395 20.82H34.11C34.1837 20.8225 34.2562 20.8398 34.3231 20.8707C34.3901 20.9016 34.4502 20.9455 34.5 21C34.5372 21.0772 34.5565 21.1617 34.5565 21.2475C34.5565 21.3332 34.5372 21.4178 34.5 21.495L33 25.4999C32.9627 25.5448 32.9118 25.5764 32.855 25.5899C32.7982 25.6034 32.7386 25.5982 32.685 25.5749Z" fill="#6C6D70"/>
<path d="M26.145 26.805C26.0885 26.806 26.0334 26.7869 25.9895 26.7513C25.9455 26.7156 25.9156 26.6655 25.905 26.61L25.5 24.93C25.4867 24.8644 25.4996 24.7961 25.5361 24.74C25.5726 24.6839 25.6297 24.6444 25.695 24.63C25.7583 24.6208 25.8228 24.6357 25.8756 24.6719C25.9284 24.708 25.9657 24.7626 25.98 24.825L26.31 26.325H29.64V26.07C29.64 25.9427 29.5895 25.8206 29.4995 25.7305C29.4094 25.6405 29.2873 25.59 29.16 25.59H27.66C27.6035 25.591 27.5484 25.5719 27.5045 25.5363C27.4605 25.5006 27.4306 25.4505 27.42 25.395L27.09 23.895C26.9673 23.3285 26.6553 22.8208 26.2054 22.4554C25.7555 22.0901 25.1946 21.8889 24.615 21.885H23.115C23.0514 21.885 22.9903 21.8597 22.9453 21.8147C22.9003 21.7697 22.875 21.7086 22.875 21.645C22.873 21.6122 22.8777 21.5794 22.8888 21.5485C22.9 21.5176 22.9173 21.4894 22.9398 21.4655C22.9623 21.4416 22.9895 21.4225 23.0196 21.4095C23.0497 21.3966 23.0822 21.3899 23.115 21.39H24.615C25.319 21.3765 26.0053 21.611 26.5537 22.0525C27.1022 22.494 27.4779 23.1144 27.615 23.805C27.615 23.805 27.825 24.69 27.9 25.08H29.16C29.42 25.0799 29.6696 25.1822 29.8548 25.3646C30.0401 25.547 30.1461 25.795 30.15 26.055V26.55C30.15 26.5834 30.1434 26.6166 30.1306 26.6475C30.1178 26.6785 30.099 26.7066 30.0754 26.7303C30.0517 26.7539 30.0236 26.7727 29.9926 26.7855C29.9617 26.7984 29.9285 26.805 29.895 26.805H26.145Z" fill="#6C6D70"/>
<path d="M18.195 19.5001C17.8948 19.4961 17.5989 19.4288 17.3265 19.3025C17.0542 19.1762 16.8117 18.9938 16.6148 18.7671C16.4179 18.5405 16.2712 18.2749 16.1842 17.9876C16.0972 17.7003 16.0719 17.3978 16.11 17.1001C16.0658 16.7995 16.0868 16.493 16.1717 16.2014C16.2566 15.9097 16.4033 15.6398 16.6018 15.4099C16.8004 15.18 17.0461 14.9956 17.3223 14.8692C17.5985 14.7428 17.8987 14.6774 18.2025 14.6774C18.5062 14.6774 18.8064 14.7428 19.0826 14.8692C19.3588 14.9956 19.6045 15.18 19.8031 15.4099C20.0016 15.6398 20.1483 15.9097 20.2332 16.2014C20.3181 16.493 20.3392 16.7995 20.295 17.1001C20.3307 17.3986 20.3033 17.7014 20.2145 17.9887C20.1257 18.276 19.9775 18.5414 19.7795 18.7678C19.5815 18.9941 19.3381 19.1762 19.0651 19.3024C18.7921 19.4285 18.4957 19.4959 18.195 19.5001ZM18.195 15.1951C17.025 15.1951 16.605 16.2301 16.605 17.1001C16.605 17.9701 17.025 19.0051 18.195 19.0051C19.365 19.0051 19.8 18.0001 19.8 17.0551C19.8 16.1101 19.38 15.1501 18.195 15.1501V15.1951Z" fill="#6C6D70"/>
<path d="M21 28.98C20.9349 28.9801 20.8722 28.9553 20.8248 28.9107C20.7774 28.8661 20.7488 28.805 20.745 28.74V26.895C20.7486 26.8286 20.7766 26.7658 20.8237 26.7187C20.8707 26.6716 20.9335 26.6436 21 26.64C21.065 26.6438 21.1261 26.6724 21.1707 26.7198C21.2153 26.7672 21.2401 26.8299 21.24 26.895V28.74C21.24 28.8037 21.2147 28.8647 21.1697 28.9097C21.1247 28.9547 21.0636 28.98 21 28.98Z" fill="#6C6D70"/>
<path d="M15.435 28.98C15.3699 28.9801 15.3072 28.9553 15.2598 28.9107C15.2124 28.8661 15.1838 28.805 15.18 28.74V26.895C15.1836 26.8286 15.2116 26.7658 15.2587 26.7187C15.3057 26.6716 15.3685 26.6436 15.435 26.64C15.5 26.6438 15.5611 26.6724 15.6057 26.7198C15.6503 26.7672 15.6751 26.8299 15.675 26.895V28.74C15.675 28.8037 15.6497 28.8647 15.6047 28.9097C15.5597 28.9547 15.4986 28.98 15.435 28.98Z" fill="#6C6D70"/>
<path d="M18.51 20.6849H17.895C17.8299 20.6851 17.7672 20.6603 17.7198 20.6156C17.6724 20.571 17.6438 20.5099 17.64 20.4449C17.64 20.3773 17.6669 20.3125 17.7147 20.2646C17.7625 20.2168 17.8274 20.1899 17.895 20.1899H18.51C18.5428 20.1899 18.5753 20.1965 18.6055 20.2095C18.6356 20.2225 18.6628 20.2416 18.6853 20.2655C18.7077 20.2894 18.7251 20.3176 18.7362 20.3485C18.7474 20.3794 18.7521 20.4122 18.75 20.4449C18.75 20.5086 18.7247 20.5696 18.6797 20.6146C18.6347 20.6597 18.5737 20.6849 18.51 20.6849Z" fill="#6C6D70"/>
<path d="M18.195 24.075C18.13 24.0711 18.0689 24.0426 18.0243 23.9952C17.9797 23.9478 17.9549 23.8851 17.955 23.82V20.445C17.9529 20.4122 17.9576 20.3794 17.9688 20.3485C17.9799 20.3176 17.9973 20.2894 18.0198 20.2655C18.0423 20.2416 18.0694 20.2225 18.0996 20.2095C18.1297 20.1966 18.1622 20.1899 18.195 20.19C18.2291 20.1877 18.2632 20.1928 18.2951 20.2049C18.3271 20.2169 18.3561 20.2356 18.3802 20.2597C18.4043 20.2839 18.423 20.3129 18.4351 20.3448C18.4471 20.3768 18.4522 20.4109 18.45 20.445V23.82C18.45 23.8876 18.4231 23.9524 18.3753 24.0003C18.3275 24.0481 18.2626 24.075 18.195 24.075Z" fill="#6C6D70"/>
<path d="M21.84 26.8651H19.5C19.2189 26.8467 18.9415 26.7912 18.675 26.7L16.905 26.85H13.905C13.72 26.8516 13.5367 26.8151 13.3664 26.7429C13.1961 26.6706 13.0424 26.5642 12.915 26.4301C12.8311 26.3317 12.769 26.2167 12.7328 26.0926C12.6966 25.9685 12.6871 25.8381 12.705 25.71L13.35 22.14C13.5142 21.5773 13.8553 21.0824 14.3226 20.7285C14.7899 20.3746 15.3588 20.1806 15.945 20.175H16.32C16.37 20.1754 16.4188 20.1896 16.4612 20.2161C16.5036 20.2426 16.5378 20.2803 16.56 20.325L18.06 23.8201L19.56 20.34C19.581 20.2975 19.6128 20.2612 19.6524 20.2349C19.6919 20.2085 19.7376 20.1931 19.785 20.19H20.01C20.593 20.1586 21.1675 20.3409 21.6259 20.7026C22.0842 21.0643 22.395 21.5807 22.5 22.1551L22.98 25.725C23.0057 25.8438 23.0028 25.9669 22.9715 26.0843C22.9402 26.2017 22.8814 26.3099 22.8 26.4001C22.6805 26.5394 22.5336 26.6526 22.3684 26.7326C22.2033 26.8126 22.0234 26.8577 21.84 26.8651ZM15.195 24.6751C16.4528 24.877 17.6394 25.3929 18.645 26.1751C18.9362 26.2978 19.245 26.3737 19.56 26.4001H21.84C21.959 26.399 22.0766 26.3732 22.1851 26.3241C22.2936 26.275 22.3906 26.2038 22.47 26.1151C22.4997 26.0687 22.518 26.016 22.5232 25.9612C22.5284 25.9064 22.5205 25.8511 22.5 25.8001L22.02 22.23C21.9293 21.8128 21.7011 21.4381 21.372 21.1661C21.0428 20.894 20.6319 20.7405 20.205 20.73L18.705 24.075C18.6563 24.1687 18.5832 24.2474 18.4934 24.3028C18.4036 24.3583 18.3005 24.3884 18.195 24.3901C18.0954 24.3877 17.9983 24.3586 17.9139 24.3058C17.8294 24.2531 17.7607 24.1785 17.715 24.09L16.215 20.73H15.99C15.5258 20.7314 15.0733 20.8762 14.6947 21.1448C14.316 21.4133 14.0297 21.7924 13.875 22.23L13.23 25.8001C13.2212 25.8559 13.2248 25.9131 13.2403 25.9675C13.2558 26.0219 13.283 26.0722 13.32 26.1151C13.4002 26.1965 13.496 26.2611 13.6016 26.3049C13.7073 26.3487 13.8206 26.3708 13.935 26.3701H16.935L17.985 26.2801C17.1135 25.6275 16.0713 25.2419 14.985 25.1701C14.9465 25.1769 14.9069 25.1735 14.87 25.1604C14.8332 25.1472 14.8005 25.1247 14.775 25.095C14.7578 25.06 14.7488 25.0216 14.7488 24.9826C14.7488 24.9435 14.7578 24.9051 14.775 24.87L15.12 23.37C15.1254 23.3383 15.1371 23.3079 15.1545 23.2808C15.1718 23.2536 15.1945 23.2302 15.2211 23.2121C15.2477 23.1939 15.2777 23.1812 15.3093 23.1748C15.3409 23.1685 15.3734 23.1686 15.405 23.175C15.4704 23.1894 15.5275 23.229 15.5639 23.2851C15.6004 23.3412 15.6134 23.4095 15.6 23.475L15.195 24.6751Z" fill="#6C6D70"/>
<path d="M15 25.08C14.9509 25.0934 14.8991 25.0934 14.85 25.08C14.8269 25.0576 14.8085 25.0308 14.7959 25.0012C14.7833 24.9715 14.7769 24.9397 14.7769 24.9075C14.7769 24.8753 14.7833 24.8435 14.7959 24.8138C14.8085 24.7842 14.8269 24.7574 14.85 24.735L15.21 24.225C15.2896 24.0974 15.4097 24 15.551 23.9484C15.6923 23.8967 15.8468 23.8938 15.99 23.94L17.205 24.165C18.3678 24.0143 19.5487 24.0855 20.685 24.375L20.595 23.37C20.6087 23.3147 20.6405 23.2656 20.6854 23.2305C20.7302 23.1955 20.7855 23.1764 20.8425 23.1764C20.8994 23.1764 20.9547 23.1955 20.9996 23.2305C21.0445 23.2656 21.0763 23.3147 21.09 23.37L21.225 24.87C21.2313 24.9148 21.2248 24.9604 21.2064 25.0017C21.1879 25.0429 21.1581 25.0781 21.1205 25.1032C21.0828 25.1283 21.0389 25.1422 20.9937 25.1434C20.9485 25.1446 20.9039 25.1331 20.865 25.11C19.6939 24.7343 18.4533 24.6266 17.235 24.795H17.16L15.87 24.555C15.795 24.555 15.675 24.66 15.675 24.66L15.3 25.185C15.2458 25.2071 15.1854 25.2086 15.1301 25.1893C15.0749 25.1699 15.0286 25.1311 15 25.08Z" fill="#6C6D70"/>
<path d="M27.735 19.5C27.6699 19.5001 27.6072 19.4753 27.5598 19.4306C27.5124 19.386 27.4838 19.3249 27.48 19.26V9.67495C27.48 9.62767 27.4707 9.58086 27.4526 9.53718C27.4345 9.4935 27.408 9.45382 27.3746 9.42039C27.3411 9.38696 27.3015 9.36044 27.2578 9.34235C27.2141 9.32426 27.1673 9.31495 27.12 9.31495H8.67C8.62273 9.31495 8.57591 9.32426 8.53224 9.34235C8.48856 9.36044 8.44887 9.38696 8.41544 9.42039C8.38202 9.45382 8.3555 9.4935 8.33741 9.53718C8.31931 9.58086 8.31 9.62767 8.31 9.67495V19.215C8.31007 19.2478 8.3034 19.2803 8.29041 19.3104C8.27742 19.3405 8.25839 19.3677 8.23449 19.3902C8.21059 19.4127 8.18233 19.43 8.15146 19.4412C8.12059 19.4523 8.08776 19.457 8.055 19.455C7.99135 19.455 7.93031 19.4297 7.8853 19.3847C7.84029 19.3396 7.815 19.2786 7.815 19.215V9.67495C7.81886 9.44939 7.91018 9.23415 8.06969 9.07464C8.22921 8.91512 8.44445 8.8238 8.67 8.81995H27.12C27.3482 8.81991 27.5672 8.90951 27.73 9.06944C27.8927 9.22936 27.9861 9.44682 27.99 9.67495V19.215C27.9943 19.2509 27.9908 19.2873 27.9799 19.3218C27.9691 19.3563 27.9509 19.388 27.9268 19.415C27.9027 19.4419 27.8731 19.4635 27.8401 19.4781C27.807 19.4928 27.7712 19.5002 27.735 19.5Z" fill="#6C6D70"/>
<path d="M9.74997 15.51C9.71271 15.5112 9.67569 15.5037 9.64184 15.4881C9.60799 15.4725 9.57825 15.4492 9.55497 15.42C9.50734 15.3722 9.48059 15.3075 9.48059 15.24C9.48059 15.1726 9.50734 15.1078 9.55497 15.06L11.25 13.785C11.2865 13.764 11.3278 13.7529 11.37 13.7529C11.4121 13.7529 11.4535 13.764 11.49 13.785L13.5 14.625L18 11.325C18.0405 11.2998 18.0872 11.2864 18.135 11.2864C18.1827 11.2864 18.2295 11.2998 18.27 11.325L22.77 13.695L24.84 11.64C24.8857 11.5943 24.9478 11.5686 25.0125 11.5686C25.0772 11.5686 25.1392 11.5943 25.185 11.64C25.2307 11.6858 25.2564 11.7478 25.2564 11.8125C25.2564 11.8772 25.2307 11.9393 25.185 11.985L22.995 14.16C22.9506 14.1897 22.8984 14.2055 22.845 14.2055C22.7916 14.2055 22.7394 14.1897 22.695 14.16L18.195 11.775L13.695 15.06C13.6585 15.0811 13.6171 15.0922 13.575 15.0922C13.5328 15.0922 13.4914 15.0811 13.455 15.06L11.475 14.265L9.89997 15.465C9.85592 15.4954 9.80345 15.5111 9.74997 15.51Z" fill="#6C6D70"/>
<path d="M28.35 8.08497H7.49999C7.46717 8.08503 7.43469 8.07836 7.40454 8.06537C7.3744 8.05239 7.34725 8.03335 7.32475 8.00945C7.30226 7.98555 7.28491 7.9573 7.27377 7.92642C7.26263 7.89555 7.25794 7.86272 7.25999 7.82997C7.25999 7.76631 7.28528 7.70527 7.33028 7.66026C7.37529 7.61525 7.43634 7.58997 7.49999 7.58997H28.35C28.4136 7.58997 28.4747 7.61525 28.5197 7.66026C28.5647 7.70527 28.59 7.76631 28.59 7.82997C28.592 7.86272 28.5873 7.89555 28.5762 7.92642C28.5651 7.9573 28.5477 7.98555 28.5252 8.00945C28.5027 8.03335 28.4756 8.05239 28.4454 8.06537C28.4153 8.07836 28.3828 8.08503 28.35 8.08497Z" fill="#6C6D70"/>
<path d="M25.125 13.14C25.0614 13.14 25.0003 13.1148 24.9553 13.0697C24.9103 13.0247 24.885 12.9637 24.885 12.9V11.91H23.895C23.8314 11.91 23.7703 11.8848 23.7253 11.8397C23.6803 11.7947 23.655 11.7337 23.655 11.67C23.6549 11.6049 23.6797 11.5422 23.7243 11.4948C23.769 11.4474 23.83 11.4189 23.895 11.415H25.125C25.1585 11.415 25.1917 11.4216 25.2226 11.4344C25.2536 11.4473 25.2817 11.466 25.3053 11.4897C25.329 11.5134 25.3478 11.5415 25.3606 11.5725C25.3734 11.6034 25.38 11.6366 25.38 11.67V12.9C25.3762 12.965 25.3477 13.0261 25.3002 13.0707C25.2528 13.1154 25.1901 13.1402 25.125 13.14Z" fill="#6C6D70"/>
</svg>
