<svg width="36" height="36" viewBox="0 0 36 36" fill="none" xmlns="http://www.w3.org/2000/svg">
<path d="M28.98 29.115H10.845C9.95998 29.115 9.22498 28.395 9.22498 27.495V15.885C9.22498 15 9.94498 14.265 10.845 14.265H28.98C29.865 14.265 30.6 14.985 30.6 15.885V27.495C30.6 28.395 29.865 29.115 28.98 29.115ZM10.845 15.015C10.365 15.015 9.98998 15.405 9.98998 15.87V27.48C9.98998 27.96 10.38 28.335 10.845 28.335H28.98C29.46 28.335 29.835 27.945 29.835 27.48V15.87C29.835 15.39 29.445 15.015 28.98 15.015H10.845Z" fill="#6C6D70"/>
<path d="M30.225 21.03H9.59998C9.38998 21.03 9.22498 20.865 9.22498 20.655V17.79C9.22498 17.58 9.38998 17.415 9.59998 17.415H30.225C30.435 17.415 30.6 17.58 30.6 17.79V20.655C30.6 20.85 30.42 21.03 30.225 21.03ZM9.97498 20.265H29.835V18.15H9.97498V20.265Z" fill="#6C6D70"/>
<path d="M17.955 23.595H11.31C11.1 23.595 10.935 23.43 10.935 23.22C10.935 23.01 11.1 22.845 11.31 22.845H17.955C18.165 22.845 18.33 23.01 18.33 23.22C18.33 23.43 18.165 23.595 17.955 23.595Z" fill="#6C6D70"/>
<path d="M26.595 27.33C25.695 27.33 24.975 26.595 24.975 25.71C24.975 24.81 25.71 24.09 26.595 24.09C27.495 24.09 28.215 24.825 28.215 25.71C28.23 26.595 27.495 27.33 26.595 27.33ZM26.595 24.825C26.115 24.825 25.725 25.215 25.725 25.695C25.725 26.175 26.115 26.565 26.595 26.565C27.075 26.565 27.465 26.175 27.465 25.695C27.48 25.215 27.075 24.825 26.595 24.825Z" fill="#6C6D70"/>
<path d="M8.67001 27.18C8.64001 27.18 8.59501 27.18 8.56501 27.165C8.02501 27 7.59001 26.565 7.45501 26.01L4.62001 14.76C4.39501 13.89 4.92001 13.005 5.79001 12.795L23.385 8.37001C24.255 8.14501 25.125 8.68501 25.35 9.54001L26.295 13.32C26.34 13.515 26.22 13.725 26.025 13.785C25.83 13.83 25.62 13.71 25.56 13.515L24.615 9.73501C24.495 9.27001 24.03 9.00001 23.565 9.10501L5.97001 13.53C5.50501 13.65 5.23501 14.115 5.34001 14.58L8.17501 25.845C8.25001 26.145 8.47501 26.37 8.77501 26.46C8.97001 26.52 9.09001 26.73 9.03001 26.925C8.98501 27.075 8.83501 27.18 8.67001 27.18Z" fill="#6C6D70"/>
<path d="M17.745 13.77C17.58 13.77 17.43 13.65 17.385 13.485C17.34 13.29 17.46 13.08 17.655 13.02L25.35 11.1C25.44 11.07 25.545 11.085 25.635 11.145C25.725 11.19 25.785 11.28 25.8 11.37L26.175 12.87C26.22 13.065 26.1 13.275 25.905 13.335C25.71 13.38 25.5 13.245 25.455 13.05L25.17 11.925L17.85 13.77H17.745Z" fill="#6C6D70"/>
<path d="M6.15001 19.665C6.09001 19.665 6.01501 19.65 5.95501 19.605C5.86501 19.56 5.80501 19.47 5.79001 19.38L5.08501 16.59C5.04001 16.395 5.16001 16.185 5.35501 16.125L8.32501 15.375C8.53501 15.33 8.73001 15.45 8.79001 15.645C8.83501 15.84 8.71501 16.05 8.52001 16.11L5.92501 16.77L6.43501 18.825L8.07001 18.405C8.28001 18.36 8.47501 18.48 8.53501 18.675C8.58001 18.87 8.46001 19.08 8.26501 19.14L6.24001 19.65C6.21001 19.65 6.18001 19.665 6.15001 19.665Z" fill="#6C6D70"/>
</svg>
