<svg xmlns="http://www.w3.org/2000/svg" width="62.908" height="51.375" viewBox="0 0 62.908 51.375">
    <path data-name="Path 13463" d="M30.582 20.5a12.582 12.582 0 1 0 12.581 12.582A12.6 12.6 0 0 0 30.582 20.5z" transform="translate(.872 -4.773)" style="fill:#b0b1b5"/>
    <path data-name="Path 13464" d="M57.876 15.985h-8.937L44.745 5.5H18.162l-4.193 10.485h-1.387v-5.243H6.291v5.242H5.032A5.036 5.036 0 0 0 0 21.016v30.791a5.073 5.073 0 0 0 5.067 5.067H57.84a5.073 5.073 0 0 0 5.067-5.067V21.016a5.036 5.036 0 0 0-5.031-5.031zm-47.391 0h-2.1v-3.146h2.1zm20.969 36.7a18.872 18.872 0 1 1 18.872-18.877 18.894 18.894 0 0 1-18.872 18.873zM54.52 28.566a4.194 4.194 0 1 1 4.194-4.194 4.2 4.2 0 0 1-4.194 4.194z" transform="translate(0 -5.5)" style="fill:#b0b1b5"/>
</svg>
