<svg width="36" height="36" viewBox="0 0 36 36" fill="none" xmlns="http://www.w3.org/2000/svg">
<path d="M26.13 28.725C25.5514 28.725 24.9859 28.5535 24.5049 28.232C24.0239 27.9106 23.649 27.4538 23.4276 26.9193C23.2062 26.3849 23.1483 25.7968 23.2612 25.2294C23.374 24.662 23.6526 24.1408 24.0617 23.7317C24.4707 23.3226 24.9919 23.0441 25.5593 22.9312C26.1267 22.8183 26.7148 22.8763 27.2493 23.0977C27.7838 23.319 28.2406 23.6939 28.562 24.175C28.8834 24.656 29.055 25.2215 29.055 25.8C29.055 26.5758 28.7468 27.3197 28.1982 27.8683C27.6497 28.4168 26.9057 28.725 26.13 28.725ZM26.13 23.43C25.6612 23.43 25.203 23.569 24.8133 23.8294C24.4235 24.0898 24.1197 24.46 23.9404 24.893C23.761 25.3261 23.714 25.8026 23.8055 26.2624C23.8969 26.7221 24.1227 27.1444 24.4541 27.4758C24.7856 27.8073 25.2079 28.033 25.6676 28.1245C26.1273 28.2159 26.6039 28.169 27.0369 27.9896C27.47 27.8102 27.8401 27.5064 28.1005 27.1167C28.361 26.727 28.5 26.2687 28.5 25.8C28.5 25.1714 28.2503 24.5686 27.8058 24.1242C27.3613 23.6797 26.7585 23.43 26.13 23.43Z" fill="#244987"/>
<path d="M18 28.725C17.4249 28.7103 16.867 28.5263 16.3959 28.196C15.9249 27.8658 15.5617 27.404 15.3517 26.8684C15.1418 26.3328 15.0945 25.7472 15.2157 25.1848C15.3369 24.6224 15.6212 24.1083 16.0331 23.7067C16.445 23.3051 16.9662 23.0339 17.5314 22.9269C18.0967 22.82 18.6809 22.8822 19.211 23.1056C19.7411 23.329 20.1936 23.7038 20.5118 24.183C20.83 24.6623 20.9998 25.2247 21 25.8C21.0002 26.1905 20.9221 26.5771 20.7704 26.937C20.6188 27.2968 20.3966 27.6227 20.117 27.8953C19.8374 28.1679 19.506 28.3818 19.1424 28.5243C18.7788 28.6668 18.3904 28.735 18 28.725ZM18 23.43C17.5313 23.43 17.0731 23.569 16.6833 23.8294C16.2936 24.0899 15.9898 24.46 15.8104 24.8931C15.6311 25.3261 15.5841 25.8026 15.6756 26.2624C15.767 26.7221 15.9927 27.1444 16.3242 27.4759C16.6556 27.8073 17.0779 28.033 17.5377 28.1245C17.9974 28.2159 18.4739 28.169 18.907 27.9896C19.34 27.8102 19.7102 27.5065 19.9706 27.1167C20.231 26.727 20.37 26.2688 20.37 25.8C20.37 25.1715 20.1203 24.5686 19.6759 24.1242C19.2314 23.6797 18.6286 23.43 18 23.43Z" fill="#244987"/>
<path d="M9.87001 28.725C9.2915 28.725 8.72598 28.5535 8.24496 28.232C7.76395 27.9106 7.38905 27.4538 7.16766 26.9193C6.94627 26.3849 6.88835 25.7968 7.00121 25.2294C7.11407 24.662 7.39265 24.1408 7.80172 23.7317C8.21079 23.3226 8.73197 23.0441 9.29937 22.9312C9.86676 22.8183 10.4549 22.8763 10.9894 23.0977C11.5238 23.319 11.9807 23.6939 12.3021 24.175C12.6235 24.656 12.795 25.2215 12.795 25.8C12.776 26.5698 12.4617 27.3028 11.9172 27.8472C11.3728 28.3917 10.6398 28.706 9.87001 28.725ZM9.87001 23.43C9.40127 23.43 8.94305 23.569 8.55331 23.8294C8.16356 24.0898 7.85979 24.46 7.68041 24.893C7.50103 25.3261 7.4541 25.8026 7.54555 26.2624C7.63699 26.7221 7.86272 27.1444 8.19417 27.4758C8.52562 27.8073 8.94791 28.033 9.40764 28.1245C9.86738 28.2159 10.3439 28.169 10.777 27.9896C11.21 27.8102 11.5802 27.5064 11.8406 27.1167C12.101 26.727 12.24 26.2687 12.24 25.8C12.242 25.4882 12.1821 25.1791 12.0637 24.8907C11.9453 24.6022 11.7708 24.3402 11.5503 24.1197C11.3298 23.8992 11.0678 23.7247 10.7793 23.6063C10.4909 23.488 10.1818 23.428 9.87001 23.43Z" fill="#244987"/>
<path d="M26.13 21C25.5547 20.9998 24.9922 20.83 24.513 20.5118C24.0337 20.1936 23.659 19.7411 23.4355 19.211C23.2121 18.6809 23.15 18.0967 23.2569 17.5314C23.3638 16.9662 23.635 16.445 24.0366 16.0331C24.4382 15.6212 24.9524 15.3369 25.5147 15.2157C26.0771 15.0945 26.6627 15.1418 27.1983 15.3517C27.7339 15.5617 28.1957 15.9249 28.526 16.3959C28.8562 16.867 29.0402 17.4249 29.055 18C29.065 18.3904 28.9967 18.7788 28.8542 19.1424C28.7117 19.506 28.4978 19.8374 28.2252 20.117C27.9526 20.3966 27.6268 20.6188 27.2669 20.7704C26.9071 20.9221 26.5205 21.0002 26.13 21ZM26.13 15.705C25.6581 15.7053 25.197 15.8464 24.8058 16.1102C24.4146 16.3741 24.1111 16.7488 23.9341 17.1862C23.7572 17.6237 23.7148 18.104 23.8125 18.5657C23.9102 19.0273 24.1435 19.4493 24.4825 19.7776C24.8215 20.1059 25.2507 20.3255 25.7153 20.4083C26.1799 20.4911 26.6586 20.4333 27.0901 20.2424C27.5216 20.0514 27.8863 19.736 28.1375 19.3365C28.3887 18.937 28.5149 18.4717 28.5 18C28.5 17.3715 28.2503 16.7686 27.8058 16.3242C27.3614 15.8797 26.7585 15.63 26.13 15.63V15.705Z" fill="#244987"/>
<path d="M18 21C17.4282 20.9852 16.8732 20.8029 16.4039 20.4759C15.9345 20.1489 15.5714 19.6914 15.3593 19.1602C15.1473 18.6289 15.0957 18.0471 15.211 17.4867C15.3262 16.9264 15.6032 16.4122 16.0077 16.0077C16.4122 15.6032 16.9264 15.3262 17.4867 15.211C18.0471 15.0957 18.6289 15.1473 19.1602 15.3593C19.6914 15.5714 20.1489 15.9345 20.4759 16.4039C20.8029 16.8732 20.9852 17.4282 21 18C21.0103 18.3968 20.9398 18.7915 20.7927 19.1602C20.6455 19.5288 20.4249 19.8636 20.1443 20.1443C19.8636 20.4249 19.5288 20.6455 19.1602 20.7927C18.7915 20.9398 18.3968 21.0103 18 21ZM18 15.705C17.5281 15.7053 17.0671 15.8463 16.6759 16.1102C16.2846 16.3741 15.9811 16.7488 15.8042 17.1862C15.6272 17.6237 15.5849 18.104 15.6825 18.5657C15.7802 19.0273 16.0135 19.4493 16.3525 19.7776C16.6915 20.1058 17.1208 20.3254 17.5853 20.4082C18.0499 20.491 18.5286 20.4333 18.9601 20.2423C19.3917 20.0514 19.7564 19.736 20.0076 19.3365C20.2587 18.937 20.3849 18.4717 20.37 18C20.37 17.3715 20.1203 16.7686 19.6759 16.3242C19.2314 15.8797 18.6286 15.63 18 15.63V15.705Z" fill="#244987"/>
<path d="M9.87002 21C9.29475 20.9998 8.7323 20.83 8.25305 20.5118C7.77379 20.1936 7.39901 19.7411 7.17559 19.211C6.95217 18.6809 6.89003 18.0967 6.99695 17.5314C7.10386 16.9662 7.37509 16.445 7.77668 16.0331C8.17828 15.6212 8.69243 15.3369 9.25479 15.2157C9.81716 15.0945 10.4028 15.1418 10.9384 15.3517C11.474 15.5617 11.9358 15.9249 12.266 16.3959C12.5963 16.867 12.7803 17.4249 12.795 18C12.7953 18.7828 12.4895 19.5348 11.943 20.0953C11.3965 20.6558 10.6526 20.9805 9.87002 21ZM9.87002 15.705C9.39814 15.7053 8.93706 15.8464 8.54586 16.1102C8.15466 16.3741 7.85114 16.7488 7.67417 17.1862C7.49721 17.6237 7.45486 18.104 7.55255 18.5657C7.65025 19.0273 7.88353 19.4493 8.22252 19.7776C8.56152 20.1059 8.99079 20.3255 9.45535 20.4083C9.91992 20.4911 10.3986 20.4333 10.8302 20.2424C11.2617 20.0514 11.6264 19.736 11.8776 19.3365C12.1288 18.937 12.255 18.4717 12.24 18C12.242 17.6882 12.1821 17.3792 12.0637 17.0907C11.9453 16.8023 11.7708 16.5402 11.5503 16.3197C11.3298 16.0993 11.0678 15.9248 10.7793 15.8064C10.4909 15.688 10.1818 15.628 9.87002 15.63V15.705Z" fill="#244987"/>
<path d="M26.13 13.1251C25.5305 13.1399 24.9404 12.9747 24.4357 12.6508C23.931 12.327 23.535 11.8593 23.2987 11.3082C23.0624 10.757 22.9966 10.1477 23.11 9.55888C23.2233 8.97004 23.5106 8.42868 23.9346 8.00466C24.3586 7.58064 24.9 7.29342 25.4888 7.18006C26.0777 7.06671 26.687 7.13243 27.2381 7.36873C27.7892 7.60503 28.2569 8.00107 28.5808 8.50575C28.9046 9.01043 29.0698 9.60059 29.055 10.2001C29.055 10.5842 28.9793 10.9645 28.8323 11.3194C28.6854 11.6743 28.4699 11.9967 28.1983 12.2683C27.9267 12.54 27.6042 12.7554 27.2493 12.9024C26.8945 13.0494 26.5141 13.1251 26.13 13.1251ZM26.13 7.83006C25.6613 7.83006 25.203 7.96906 24.8133 8.22948C24.4235 8.4899 24.1198 8.86004 23.9404 9.2931C23.761 9.72616 23.7141 10.2027 23.8055 10.6624C23.897 11.1222 24.1227 11.5445 24.4542 11.8759C24.7856 12.2074 25.2079 12.4331 25.6676 12.5245C26.1274 12.616 26.6039 12.569 27.037 12.3897C27.47 12.2103 27.8402 11.9065 28.1006 11.5168C28.361 11.127 28.5 10.6688 28.5 10.2001C28.5 9.5715 28.2503 8.96868 27.8058 8.52422C27.3614 8.07976 26.7586 7.83006 26.13 7.83006Z" fill="#244987"/>
<path d="M18 13.125C17.4035 13.1248 16.8206 12.9468 16.3257 12.6137C15.8309 12.2806 15.4466 11.8076 15.2219 11.2551C14.9972 10.7025 14.9423 10.0955 15.0643 9.51159C15.1863 8.9277 15.4795 8.39342 15.9066 7.977C16.3337 7.56059 16.8752 7.28094 17.462 7.1738C18.0488 7.06665 18.6543 7.13687 19.2009 7.37547C19.7476 7.61408 20.2108 8.01024 20.5312 8.51335C20.8517 9.01647 21.0149 9.60369 21 10.2C21.0001 10.5905 20.922 10.9771 20.7704 11.3369C20.6187 11.6968 20.3965 12.0226 20.1169 12.2953C19.8373 12.5679 19.506 12.7817 19.1424 12.9242C18.7788 13.0668 18.3904 13.135 18 13.125ZM18 7.83C17.5312 7.83 17.073 7.969 16.6833 8.22942C16.2935 8.48984 15.9898 8.85998 15.8104 9.29304C15.631 9.7261 15.5841 10.2026 15.6755 10.6624C15.767 11.1221 15.9927 11.5444 16.3241 11.8758C16.6556 12.2073 17.0779 12.433 17.5376 12.5245C17.9973 12.6159 18.4739 12.569 18.9069 12.3896C19.34 12.2102 19.7101 11.9064 19.9706 11.5167C20.231 11.127 20.37 10.6687 20.37 10.2C20.37 9.57144 20.1203 8.96862 19.6758 8.52416C19.2314 8.0797 18.6285 7.83 18 7.83Z" fill="#244987"/>
<path d="M9.86998 13.1251C9.27051 13.1399 8.68036 12.9747 8.17568 12.6508C7.671 12.327 7.27495 11.8593 7.03865 11.3082C6.80235 10.757 6.73663 10.1477 6.84999 9.55888C6.96334 8.97004 7.25056 8.42868 7.67458 8.00466C8.0986 7.58064 8.63996 7.29342 9.22881 7.18006C9.81765 7.06671 10.427 7.13243 10.9781 7.36873C11.5292 7.60503 11.9969 8.00107 12.3207 8.50575C12.6446 9.01043 12.8098 9.60059 12.795 10.2001C12.776 10.9698 12.4617 11.7028 11.9172 12.2473C11.3727 12.7918 10.6398 13.106 9.86998 13.1251ZM9.86998 7.83006C9.40124 7.83006 8.94303 7.96906 8.55328 8.22948C8.16354 8.4899 7.85977 8.86004 7.68039 9.2931C7.50101 9.72616 7.45408 10.2027 7.54552 10.6624C7.63697 11.1222 7.86269 11.5445 8.19414 11.8759C8.52559 12.2074 8.94788 12.4331 9.40762 12.5245C9.86735 12.616 10.3439 12.569 10.7769 12.3897C11.21 12.2103 11.5801 11.9065 11.8406 11.5168C12.101 11.127 12.24 10.6688 12.24 10.2001C12.242 9.88827 12.182 9.57919 12.0636 9.29075C11.9452 9.00231 11.7707 8.74025 11.5503 8.51978C11.3298 8.29931 11.0677 8.12481 10.7793 8.00641C10.4909 7.88801 10.1818 7.82807 9.86998 7.83006Z" fill="#244987"/>
</svg>
