<svg width="36" height="36" viewBox="0 0 36 36" fill="none" xmlns="http://www.w3.org/2000/svg">
<path d="M13.68 20.64C13.4464 20.6432 13.2153 20.5919 13.005 20.49L5.10001 16.725C4.9748 16.6957 4.86318 16.6249 4.78329 16.5241C4.70339 16.4234 4.65991 16.2986 4.65991 16.17C4.65991 16.0414 4.70339 15.9166 4.78329 15.8158C4.86318 15.7151 4.9748 15.6443 5.10001 15.615L19.98 8.83498C20.4653 8.66341 20.9947 8.66341 21.48 8.83498L30.48 11.625C30.9 11.745 30.975 12 30.99 12.135C31.005 12.27 30.99 12.525 30.57 12.72L14.445 20.475C14.2047 20.5841 13.9439 20.6403 13.68 20.64ZM5.44501 16.14L13.275 19.875C13.5592 19.9877 13.8758 19.9877 14.16 19.875L30.12 12.12L21.21 9.38998C20.8924 9.29176 20.5526 9.29176 20.235 9.38998L5.44501 16.14Z" fill="#6C6D70"/>
<path d="M24 18.1949C23.9407 18.1933 23.8829 18.1758 23.8328 18.1441C23.7826 18.1124 23.7419 18.0678 23.715 18.0149C23.6784 17.9372 23.6737 17.8482 23.7017 17.767C23.7297 17.6858 23.7883 17.6186 23.865 17.5799L29.865 14.6699C29.8125 14.6316 29.7738 14.5772 29.7549 14.515C29.7359 14.4528 29.7377 14.3861 29.76 14.3249C29.7844 14.2418 29.8406 14.1715 29.9164 14.1294C29.9922 14.0873 30.0815 14.0767 30.165 14.0999C30.585 14.2349 30.66 14.4899 30.675 14.6249C30.69 14.7599 30.675 15.0149 30.27 15.1949L24.18 18.1949H24Z" fill="#6C6D70"/>
<path d="M13.41 23.19C13.178 23.193 12.948 23.147 12.735 23.055L4.83002 19.29C4.70925 19.2487 4.60345 19.1725 4.52602 19.071C4.44858 18.9696 4.40299 18.8474 4.39502 18.72C4.40558 18.5991 4.45083 18.4839 4.52534 18.3881C4.59985 18.2923 4.70044 18.22 4.81502 18.18C4.89278 18.1435 4.98174 18.1387 5.06297 18.1667C5.14421 18.1947 5.21131 18.2533 5.25002 18.33C5.27743 18.3963 5.28349 18.4695 5.26736 18.5394C5.25123 18.6093 5.21371 18.6724 5.16002 18.72L13.005 22.5C13.2892 22.6128 13.6058 22.6128 13.89 22.5L19.38 19.83C19.4578 19.7935 19.5467 19.7887 19.628 19.8167C19.7092 19.8447 19.7763 19.9033 19.815 19.98C19.8352 20.0182 19.8473 20.06 19.8507 20.103C19.854 20.1461 19.8485 20.1893 19.8344 20.2301C19.8203 20.2709 19.7981 20.3083 19.7689 20.3401C19.7398 20.372 19.7044 20.3974 19.665 20.415L14.175 23.04C13.9338 23.1444 13.6728 23.1956 13.41 23.19Z" fill="#6C6D70"/>
<path d="M29.475 18.1799C29.4157 18.1783 29.3579 18.1608 29.3078 18.1291C29.2576 18.0974 29.2169 18.0528 29.19 17.9999C29.1693 17.9627 29.1564 17.9217 29.152 17.8794C29.1476 17.837 29.1519 17.7942 29.1645 17.7536C29.1771 17.7129 29.1978 17.6753 29.2254 17.6428C29.253 17.6104 29.2869 17.5839 29.325 17.5649L30.15 17.1299C30.0993 17.0901 30.062 17.0357 30.0432 16.974C30.0244 16.9123 30.0251 16.8463 30.045 16.7849C30.0501 16.7384 30.065 16.6934 30.0888 16.6531C30.1127 16.6127 30.1448 16.5779 30.1831 16.551C30.2214 16.524 30.265 16.5055 30.311 16.4967C30.3571 16.4879 30.4044 16.489 30.45 16.4999C30.87 16.6349 30.945 16.8749 30.96 17.0249C30.975 17.1749 30.96 17.4149 30.54 17.5949L29.625 18.0749C29.5897 18.1273 29.5363 18.1647 29.475 18.1799Z" fill="#6C6D70"/>
<path d="M13.68 25.65C13.4469 25.6482 13.2169 25.5971 13.005 25.5L5.09998 21.735C4.98039 21.6964 4.87507 21.6229 4.79755 21.524C4.72004 21.4251 4.67387 21.3053 4.66498 21.18C4.67633 21.0575 4.72166 20.9407 4.79587 20.8426C4.87008 20.7445 4.97022 20.6692 5.08498 20.625C5.16458 20.5894 5.255 20.5869 5.3365 20.6178C5.418 20.6487 5.48396 20.7106 5.51998 20.79C5.54739 20.8563 5.55345 20.9294 5.53732 20.9993C5.52118 21.0692 5.48366 21.1324 5.42998 21.18L13.275 24.93C13.5592 25.0427 13.8758 25.0427 14.16 24.93L19.365 22.395C19.4427 22.3584 19.5317 22.3536 19.6129 22.3816C19.6942 22.4097 19.7613 22.4682 19.8 22.545C19.8365 22.6227 19.8413 22.7117 19.8133 22.7929C19.7853 22.8741 19.7267 22.9413 19.65 22.98L14.445 25.5C14.2036 25.6039 13.9428 25.655 13.68 25.65Z" fill="#6C6D70"/>
<path d="M13.68 28.11C13.448 28.113 13.218 28.067 13.005 27.975L5.09998 24.195C4.98039 24.1565 4.87507 24.083 4.79755 23.9841C4.72004 23.8852 4.67387 23.7654 4.66498 23.64C4.67458 23.5171 4.71925 23.3994 4.79369 23.301C4.86814 23.2027 4.96923 23.1277 5.08498 23.085C5.16458 23.0495 5.255 23.0469 5.3365 23.0778C5.418 23.1088 5.48396 23.1707 5.51998 23.25C5.54739 23.3163 5.55345 23.3895 5.53732 23.4594C5.52118 23.5293 5.48366 23.5925 5.42998 23.64L13.275 27.375C13.5592 27.4878 13.8758 27.4878 14.16 27.375L20.415 24.375C20.4898 24.3531 20.57 24.3583 20.6413 24.3898C20.7126 24.4213 20.7705 24.4771 20.8046 24.5472C20.8387 24.6172 20.847 24.6972 20.8278 24.7727C20.8087 24.8483 20.7634 24.9147 20.7 24.96L14.445 27.96C14.2036 28.064 13.9428 28.1151 13.68 28.11Z" fill="#6C6D70"/>
<path d="M12.885 18.2851H12.75L9.74998 16.9351C9.69595 16.9056 9.65078 16.8623 9.61913 16.8096C9.58748 16.7568 9.57051 16.6966 9.56998 16.6351C9.5699 16.5754 9.58678 16.5169 9.61865 16.4665C9.65051 16.416 9.69606 16.3756 9.74998 16.3501C10.005 16.2301 10.05 16.1251 10.05 16.0951C10.05 16.0651 10.05 15.9451 9.73498 15.8251C9.67588 15.8007 9.62557 15.759 9.59075 15.7054C9.55592 15.6518 9.53821 15.5889 9.53998 15.5251C9.5399 15.4654 9.55678 15.4069 9.58865 15.3565C9.62051 15.306 9.66606 15.2656 9.71998 15.2401L12.165 14.0851C12.2031 14.0649 12.245 14.0527 12.288 14.0494C12.331 14.0461 12.3742 14.0516 12.415 14.0657C12.4558 14.0797 12.4933 14.102 12.5251 14.1312C12.5569 14.1603 12.5824 14.1957 12.6 14.2351C12.6365 14.3128 12.6413 14.4018 12.6133 14.483C12.5853 14.5642 12.5267 14.6313 12.45 14.6701L10.5 15.5551C10.6264 15.6899 10.7009 15.8654 10.71 16.0501C10.708 16.2307 10.6445 16.4053 10.53 16.5451L12.825 17.5951C13.6214 17.3173 14.4885 17.3173 15.285 17.5951L17.385 16.6051C17.4627 16.5685 17.5517 16.5637 17.6329 16.5917C17.7142 16.6197 17.7813 16.6783 17.82 16.7551C17.8565 16.8328 17.8613 16.9218 17.8333 17.003C17.8053 17.0842 17.7467 17.1513 17.67 17.1901L15.435 18.2401C15.3935 18.2624 15.3471 18.2741 15.3 18.2741C15.2529 18.2741 15.2065 18.2624 15.165 18.2401C14.4566 17.9601 13.6683 17.9601 12.96 18.2401L12.885 18.2851Z" fill="#6C6D70"/>
<path d="M22.23 15C22.17 15.002 22.1107 14.9859 22.0599 14.9538C22.009 14.9217 21.969 14.8751 21.945 14.82C21.9248 14.7819 21.9127 14.74 21.9094 14.697C21.906 14.654 21.9116 14.6107 21.9256 14.5699C21.9397 14.5292 21.962 14.4917 21.9911 14.4599C22.0203 14.4281 22.0556 14.4026 22.095 14.385L24.225 13.35C24.0991 13.2331 24.0238 13.0716 24.015 12.9C23.9969 12.7449 24.0399 12.5889 24.135 12.465L21.555 11.55C20.7363 11.845 19.8478 11.8868 19.005 11.67L17.22 12.495C17.1817 12.5123 17.1403 12.5218 17.0982 12.5228C17.0562 12.5238 17.0144 12.5165 16.9752 12.5011C16.9361 12.4857 16.9004 12.4626 16.8703 12.4333C16.8402 12.4039 16.8163 12.3688 16.8 12.33C16.7635 12.2522 16.7587 12.1633 16.7867 12.082C16.8147 12.0008 16.8733 11.9337 16.95 11.895L18.84 11.025C18.9172 10.9949 19.0029 10.9949 19.08 11.025C19.8447 11.2444 20.6596 11.2128 21.405 10.935C21.4423 10.9165 21.4834 10.9069 21.525 10.9069C21.5667 10.9069 21.6077 10.9165 21.645 10.935L24.915 11.985C24.9798 11.9989 25.0377 12.035 25.0788 12.087C25.1199 12.139 25.1415 12.2037 25.14 12.27C25.1462 12.3346 25.1321 12.3996 25.0999 12.456C25.0677 12.5124 25.0188 12.5574 24.96 12.585C24.735 12.69 24.66 12.795 24.66 12.81C24.66 12.825 24.75 12.93 25.035 13.02C25.0957 13.0437 25.1481 13.0848 25.1855 13.1382C25.2228 13.1916 25.2436 13.2548 25.245 13.32C25.2502 13.3825 25.2356 13.4451 25.2033 13.4989C25.171 13.5528 25.1226 13.5951 25.065 13.62L22.38 14.925L22.23 15Z" fill="#6C6D70"/>
<path d="M19.605 18H19.47L10.68 13.68C10.6226 13.6537 10.5739 13.6115 10.5398 13.5583C10.5056 13.5051 10.4875 13.4432 10.4875 13.38C10.4875 13.3169 10.5056 13.255 10.5398 13.2018C10.5739 13.1486 10.6226 13.1064 10.68 13.08L15 11.115C15.0913 11.0775 15.1937 11.0775 15.285 11.115L24 15.255C24.0796 15.2928 24.1409 15.3607 24.1704 15.4437C24.1999 15.5267 24.1953 15.618 24.1575 15.6975C24.1197 15.7771 24.0519 15.8384 23.9689 15.8679C23.8859 15.8975 23.7946 15.8928 23.715 15.855L15.165 11.775L11.595 13.395L19.755 17.31C19.8328 17.3517 19.8917 17.4215 19.9196 17.5052C19.9475 17.5889 19.9423 17.6801 19.905 17.76C19.8828 17.8243 19.8428 17.8809 19.7897 17.9234C19.7366 17.9659 19.6726 17.9925 19.605 18Z" fill="#6C6D70"/>
<path d="M24 18.135C23.9125 18.135 23.8285 18.1003 23.7666 18.0384C23.7048 17.9765 23.67 17.8925 23.67 17.805V15.765C23.67 15.6775 23.7048 15.5936 23.7666 15.5317C23.8285 15.4698 23.9125 15.435 24 15.435C24.0431 15.4306 24.0867 15.4356 24.1277 15.4497C24.1687 15.4637 24.2062 15.4865 24.2376 15.5165C24.2689 15.5464 24.2935 15.5828 24.3094 15.6231C24.3254 15.6634 24.3324 15.7067 24.33 15.75V17.805C24.332 17.8476 24.3254 17.8902 24.3105 17.9302C24.2955 17.9701 24.2727 18.0067 24.2432 18.0375C24.2137 18.0684 24.1783 18.0929 24.1391 18.1097C24.0999 18.1265 24.0576 18.1351 24.015 18.135H24Z" fill="#6C6D70"/>
<path d="M19.59 25.29C19.5474 25.292 19.5048 25.2853 19.4649 25.2704C19.4249 25.2555 19.3884 25.2326 19.3575 25.2032C19.3267 25.1737 19.3021 25.1383 19.2853 25.0991C19.2686 25.0598 19.26 25.0176 19.26 24.975V17.655C19.26 17.5674 19.2948 17.4835 19.3567 17.4216C19.4186 17.3597 19.5025 17.325 19.59 17.325C19.6327 17.3249 19.6749 17.3335 19.7141 17.3503C19.7534 17.367 19.7888 17.3916 19.8182 17.4225C19.8477 17.4533 19.8706 17.4898 19.8855 17.5298C19.9004 17.5698 19.907 17.6123 19.905 17.655V24.975C19.905 25.0585 19.8718 25.1386 19.8127 25.1977C19.7537 25.2568 19.6736 25.29 19.59 25.29Z" fill="#6C6D70"/>
<path d="M26.61 28.0649C24.135 28.0649 21.63 27.4049 21.63 26.1449C21.628 26.1023 21.6346 26.0598 21.6495 26.0198C21.6644 25.9798 21.6873 25.9433 21.7168 25.9124C21.7462 25.8816 21.7817 25.857 21.8209 25.8403C21.8601 25.8235 21.9023 25.8149 21.945 25.8149C22.0325 25.8149 22.1165 25.8497 22.1783 25.9116C22.2402 25.9735 22.275 26.0574 22.275 26.1449C22.275 26.6549 23.97 27.4049 26.61 27.4049C29.25 27.4049 30.945 26.6549 30.945 26.1449C30.945 26.0574 30.9798 25.9735 31.0416 25.9116C31.1035 25.8497 31.1875 25.8149 31.275 25.8149C31.3625 25.8149 31.4465 25.8497 31.5083 25.9116C31.5702 25.9735 31.605 26.0574 31.605 26.1449C31.605 27.4049 29.085 28.0649 26.61 28.0649Z" fill="#6C6D70"/>
<path d="M26.61 26.115C24.135 26.115 21.63 25.455 21.63 24.195C21.628 24.1524 21.6346 24.1098 21.6495 24.0698C21.6644 24.0299 21.6873 23.9933 21.7168 23.9625C21.7462 23.9316 21.7817 23.9071 21.8209 23.8903C21.8601 23.8736 21.9023 23.8649 21.945 23.865C21.9883 23.865 22.0312 23.8735 22.0713 23.8901C22.1113 23.9067 22.1477 23.931 22.1783 23.9616C22.209 23.9923 22.2333 24.0287 22.2499 24.0687C22.2665 24.1087 22.275 24.1517 22.275 24.195C22.275 24.705 23.97 25.47 26.61 25.47C29.25 25.47 30.945 24.705 30.945 24.195C30.945 24.1075 30.9798 24.0235 31.0416 23.9616C31.1035 23.8998 31.1875 23.865 31.275 23.865C31.3625 23.865 31.4465 23.8998 31.5083 23.9616C31.5702 24.0235 31.605 24.1075 31.605 24.195C31.605 25.5 29.085 26.115 26.61 26.115Z" fill="#6C6D70"/>
<path d="M26.61 28.11C24.135 28.11 21.63 27.45 21.63 26.19V24.195C21.628 24.1524 21.6346 24.1098 21.6495 24.0698C21.6644 24.0299 21.6873 23.9933 21.7168 23.9625C21.7462 23.9316 21.7817 23.9071 21.8209 23.8903C21.8601 23.8736 21.9023 23.8649 21.945 23.865C21.9883 23.865 22.0312 23.8735 22.0713 23.8901C22.1113 23.9067 22.1477 23.931 22.1783 23.9616C22.209 23.9923 22.2333 24.0287 22.2499 24.0687C22.2665 24.1087 22.275 24.1517 22.275 24.195V26.19C22.275 26.7 23.97 27.45 26.61 27.45C29.25 27.45 30.945 26.7 30.945 26.19V24.195C30.945 24.1075 30.9798 24.0235 31.0416 23.9616C31.1035 23.8998 31.1875 23.865 31.275 23.865C31.3625 23.865 31.4465 23.8998 31.5083 23.9616C31.5702 24.0235 31.605 24.1075 31.605 24.195V26.19C31.605 27.45 29.085 28.11 26.61 28.11Z" fill="#6C6D70"/>
<path d="M26.61 24.15C24.135 24.15 21.63 23.49 21.63 22.23C21.628 22.1874 21.6346 22.1448 21.6495 22.1049C21.6644 22.0649 21.6873 22.0284 21.7168 21.9975C21.7462 21.9667 21.7817 21.9421 21.8209 21.9254C21.8601 21.9086 21.9023 21.9 21.945 21.9C22.0325 21.9 22.1165 21.9348 22.1783 21.9967C22.2402 22.0586 22.275 22.1425 22.275 22.23C22.275 22.74 23.97 23.49 26.61 23.49C29.25 23.49 30.945 22.74 30.945 22.23C30.945 22.1425 30.9798 22.0586 31.0416 21.9967C31.1035 21.9348 31.1875 21.9 31.275 21.9C31.3625 21.9 31.4465 21.9348 31.5083 21.9967C31.5702 22.0586 31.605 22.1425 31.605 22.23C31.605 23.49 29.085 24.15 26.61 24.15Z" fill="#6C6D70"/>
<path d="M26.61 26.13C24.135 26.13 21.63 25.47 21.63 24.21V22.23C21.628 22.1874 21.6346 22.1448 21.6495 22.1049C21.6644 22.0649 21.6873 22.0284 21.7168 21.9975C21.7462 21.9667 21.7817 21.9421 21.8209 21.9254C21.8601 21.9086 21.9023 21.9 21.945 21.9C22.0325 21.9 22.1165 21.9348 22.1783 21.9967C22.2402 22.0586 22.275 22.1425 22.275 22.23V24.21C22.275 24.735 23.97 25.485 26.61 25.485C29.25 25.485 30.945 24.735 30.945 24.21V22.23C30.945 22.1425 30.9798 22.0586 31.0416 21.9967C31.1035 21.9348 31.1875 21.9 31.275 21.9C31.3625 21.9 31.4465 21.9348 31.5083 21.9967C31.5702 22.0586 31.605 22.1425 31.605 22.23V24.21C31.605 25.5 29.085 26.13 26.61 26.13Z" fill="#6C6D70"/>
<path d="M26.61 22.2C24.135 22.2 21.63 21.54 21.63 20.28C21.63 19.02 24.135 18.36 26.61 18.36C29.085 18.36 31.605 19.02 31.605 20.28C31.605 21.54 29.085 22.2 26.61 22.2ZM26.61 19.005C23.97 19.005 22.275 19.77 22.275 20.28C22.275 20.79 23.97 21.555 26.61 21.555C29.25 21.555 30.945 20.79 30.945 20.28C30.945 19.77 29.25 19.005 26.61 19.005Z" fill="#6C6D70"/>
<path d="M26.61 24.1949C24.135 24.1949 21.63 23.535 21.63 22.275V20.28C21.628 20.2373 21.6346 20.1948 21.6495 20.1548C21.6644 20.1148 21.6873 20.0783 21.7168 20.0475C21.7462 20.0166 21.7817 19.992 21.8209 19.9753C21.8601 19.9585 21.9023 19.9499 21.945 19.95C21.9883 19.95 22.0312 19.9585 22.0713 19.9751C22.1113 19.9917 22.1477 20.016 22.1783 20.0466C22.209 20.0772 22.2333 20.1136 22.2499 20.1537C22.2665 20.1937 22.275 20.2366 22.275 20.28V22.275C22.275 22.785 23.97 23.535 26.61 23.535C29.25 23.535 30.945 22.785 30.945 22.275V20.28C30.945 20.1924 30.9798 20.1085 31.0416 20.0466C31.1035 19.9847 31.1875 19.95 31.275 19.95C31.3625 19.95 31.4465 19.9847 31.5083 20.0466C31.5702 20.1085 31.605 20.1924 31.605 20.28V22.275C31.605 23.535 29.085 24.1949 26.61 24.1949Z" fill="#6C6D70"/>
</svg>
