<svg width="36" height="36" viewBox="0 0 36 36" fill="none" xmlns="http://www.w3.org/2000/svg">
<path d="M12.27 32.0549C11.8212 32.0523 11.3873 31.8938 11.0425 31.6065C10.6977 31.3192 10.4635 30.9209 10.38 30.4799L7.08001 12.9149C6.98674 12.4183 7.09144 11.9049 7.37174 11.4844C7.65204 11.064 8.0857 10.7699 8.58001 10.665L13.08 9.82495V11.76L9.00001 12.5399L12.255 30.1349L20.28 28.6349H25.755L25.455 29.0399C25.3155 29.2466 25.1362 29.4233 24.9276 29.5598C24.719 29.6963 24.4852 29.7899 24.24 29.8349L12.63 32.0249C12.5117 32.0494 12.3908 32.0595 12.27 32.0549ZM12.585 10.5L8.71501 11.2349C8.53267 11.2692 8.35888 11.339 8.20359 11.4405C8.0483 11.542 7.91457 11.6732 7.81006 11.8265C7.70555 11.9797 7.63231 12.1521 7.59455 12.3338C7.55679 12.5154 7.55525 12.7027 7.59001 12.8849L10.89 30.4499C10.9242 30.6323 10.9941 30.8061 11.0956 30.9614C11.1971 31.1167 11.3282 31.2504 11.4815 31.3549C11.6348 31.4594 11.8072 31.5326 11.9888 31.5704C12.1705 31.6082 12.3578 31.6097 12.54 31.5749L24.15 29.3999C24.3066 29.3651 24.458 29.3096 24.6 29.2349H20.295L12.375 30.7349C12.2335 30.7298 12.0994 30.6708 12 30.5699C11.9406 30.5312 11.8899 30.4806 11.8511 30.4212C11.8124 30.3618 11.7865 30.2949 11.775 30.2249L8.44501 12.6599C8.4275 12.5879 8.42502 12.513 8.43772 12.4399C8.45043 12.3669 8.47805 12.2972 8.51886 12.2353C8.55967 12.1734 8.6128 12.1205 8.67494 12.08C8.73707 12.0395 8.80688 12.0123 8.88001 11.9999L12.585 11.31V10.5Z" fill="#6C6D70"/>
<path d="M27 28.5H15.21C14.9566 28.5 14.7057 28.4498 14.4717 28.3524C14.2378 28.255 14.0255 28.1122 13.847 27.9323C13.6685 27.7525 13.5274 27.539 13.4318 27.3043C13.3362 27.0697 13.288 26.8184 13.29 26.565V8.66999C13.288 8.41659 13.3362 8.16531 13.4318 7.93063C13.5274 7.69595 13.6685 7.48251 13.847 7.30263C14.0255 7.12275 14.2378 6.97998 14.4717 6.88256C14.7057 6.78513 14.9566 6.73498 15.21 6.73499H17.625V6.16499C17.6365 6.01912 17.7036 5.88325 17.8125 5.78552C17.9214 5.68779 18.0637 5.63568 18.21 5.63999H19.215C19.2574 5.16199 19.4772 4.7172 19.8312 4.39321C20.1851 4.06922 20.6476 3.88953 21.1275 3.88953C21.6073 3.88953 22.0698 4.06922 22.4238 4.39321C22.7778 4.7172 22.9976 5.16199 23.04 5.63999H24C24.1407 5.63586 24.2775 5.68687 24.3812 5.78214C24.4849 5.87741 24.5472 6.0094 24.555 6.14999V6.73499H27C27.2559 6.73098 27.51 6.77818 27.7474 6.87382C27.9849 6.96945 28.2008 7.11159 28.3824 7.29187C28.5641 7.47216 28.7079 7.68695 28.8054 7.92361C28.9028 8.16028 28.952 8.41404 28.95 8.66999V26.535C28.9561 26.7934 28.9099 27.0504 28.8143 27.2906C28.7186 27.5308 28.5754 27.7492 28.3933 27.9327C28.2113 28.1162 27.994 28.261 27.7545 28.3585C27.5151 28.456 27.2585 28.5041 27 28.5ZM15.21 7.25999C14.836 7.25999 14.4774 7.40854 14.213 7.67297C13.9485 7.93739 13.8 8.29603 13.8 8.66999V26.535C13.8 26.9089 13.9485 27.2676 14.213 27.532C14.4774 27.7964 14.836 27.945 15.21 27.945H27C27.3739 27.945 27.7326 27.7964 27.997 27.532C28.2614 27.2676 28.41 26.9089 28.41 26.535V8.66999C28.41 8.48482 28.3735 8.30147 28.3026 8.1304C28.2318 7.95933 28.1279 7.8039 27.997 7.67297C27.8661 7.54203 27.7106 7.43817 27.5396 7.36732C27.3685 7.29646 27.1851 7.25999 27 7.25999H24V6.70499V6.14999H22.5V5.89499C22.5 5.52103 22.3514 5.16239 22.087 4.89797C21.8226 4.63354 21.4639 4.48499 21.09 4.48499C20.716 4.48499 20.3574 4.63354 20.093 4.89797C19.8285 5.16239 19.68 5.52103 19.68 5.89499V6.16499H19.425H18.15V7.24499L15.21 7.25999ZM27 27.075H15.21C15.0694 27.0711 14.9358 27.0125 14.8378 26.9116C14.7398 26.8108 14.6849 26.6756 14.685 26.535V8.66999C14.6849 8.52933 14.7398 8.3942 14.8378 8.29335C14.9358 8.19251 15.0694 8.13389 15.21 8.12999H27C27.1406 8.13389 27.2741 8.19251 27.3722 8.29335C27.4702 8.3942 27.525 8.52933 27.525 8.66999V26.535C27.525 26.6756 27.4702 26.8108 27.3722 26.9116C27.2741 27.0125 27.1406 27.0711 27 27.075ZM15.21 8.63999V26.535H27.045V8.66999L15.21 8.63999ZM21.12 6.95999C20.9034 6.95999 20.6917 6.89577 20.5116 6.77545C20.3316 6.65513 20.1912 6.48411 20.1083 6.28402C20.0255 6.08394 20.0038 5.86377 20.046 5.65136C20.0883 5.43895 20.1926 5.24384 20.3457 5.0907C20.4988 4.93757 20.6939 4.83328 20.9064 4.79103C21.1188 4.74878 21.3389 4.77046 21.539 4.85334C21.7391 4.93622 21.9101 5.07656 22.0304 5.25664C22.1508 5.43671 22.215 5.64842 22.215 5.86499C22.215 6.1554 22.0996 6.43392 21.8943 6.63927C21.6889 6.84462 21.4104 6.95999 21.12 6.95999ZM21.12 5.29499C20.9688 5.29499 20.8238 5.35504 20.7169 5.46194C20.61 5.56883 20.55 5.71381 20.55 5.86499C20.55 6.01616 20.61 6.16114 20.7169 6.26804C20.8238 6.37493 20.9688 6.43499 21.12 6.43499C21.2712 6.43499 21.4161 6.37493 21.523 6.26804C21.6299 6.16114 21.69 6.01616 21.69 5.86499C21.69 5.71381 21.6299 5.56883 21.523 5.46194C21.4161 5.35504 21.2712 5.29499 21.12 5.29499Z" fill="#6C6D70"/>
<path d="M17.535 11.16H16.29C15.9503 11.16 15.675 11.4354 15.675 11.775V13.02C15.675 13.3597 15.9503 13.635 16.29 13.635H17.535C17.8746 13.635 18.15 13.3597 18.15 13.02V11.775C18.15 11.4354 17.8746 11.16 17.535 11.16Z" fill="#6C6D70"/>
<path d="M26.16 11.925H19.395C19.221 11.925 19.08 12.0661 19.08 12.24V12.54C19.08 12.714 19.221 12.855 19.395 12.855H26.16C26.334 12.855 26.475 12.714 26.475 12.54V12.24C26.475 12.0661 26.334 11.925 26.16 11.925Z" fill="#6C6D70"/>
<path d="M17.535 16.485H16.29C15.9503 16.485 15.675 16.7603 15.675 17.1V18.345C15.675 18.6846 15.9503 18.96 16.29 18.96H17.535C17.8746 18.96 18.15 18.6846 18.15 18.345V17.1C18.15 16.7603 17.8746 16.485 17.535 16.485Z" fill="#6C6D70"/>
<path d="M26.16 17.25H19.395C19.221 17.25 19.08 17.391 19.08 17.565V17.865C19.08 18.039 19.221 18.18 19.395 18.18H26.16C26.334 18.18 26.475 18.039 26.475 17.865V17.565C26.475 17.391 26.334 17.25 26.16 17.25Z" fill="#6C6D70"/>
<path d="M17.535 21.8099H16.29C15.9503 21.8099 15.675 22.0853 15.675 22.4249V23.6699C15.675 24.0096 15.9503 24.2849 16.29 24.2849H17.535C17.8746 24.2849 18.15 24.0096 18.15 23.6699V22.4249C18.15 22.0853 17.8746 21.8099 17.535 21.8099Z" fill="#6C6D70"/>
<path d="M26.16 22.575H19.395C19.221 22.575 19.08 22.716 19.08 22.89V23.19C19.08 23.3639 19.221 23.505 19.395 23.505H26.16C26.334 23.505 26.475 23.3639 26.475 23.19V22.89C26.475 22.716 26.334 22.575 26.16 22.575Z" fill="#6C6D70"/>
</svg>
