<svg width="36" height="36" viewBox="0 0 36 36" fill="none" xmlns="http://www.w3.org/2000/svg">
<path d="M32.22 23.49H28.29C28.2263 23.49 28.1653 23.4647 28.1203 23.4197C28.0753 23.3747 28.05 23.3137 28.05 23.25V12.75C28.05 12.6864 28.0753 12.6253 28.1203 12.5803C28.1653 12.5353 28.2263 12.51 28.29 12.51H32.22C32.2836 12.51 32.3447 12.5353 32.3897 12.5803C32.4347 12.6253 32.46 12.6864 32.46 12.75C32.46 12.8137 32.4347 12.8747 32.3897 12.9197C32.3447 12.9647 32.2836 12.99 32.22 12.99H28.5V22.935H32.19C32.255 22.9388 32.3161 22.9674 32.3607 23.0148C32.4053 23.0622 32.4301 23.1249 32.43 23.19C32.4388 23.2237 32.4403 23.2589 32.4341 23.2933C32.428 23.3276 32.4145 23.3601 32.3945 23.3887C32.3745 23.4172 32.3485 23.4411 32.3184 23.4586C32.2883 23.4761 32.2547 23.4868 32.22 23.49Z" fill="#6C6D70"/>
<path d="M8.37 19.89H7.725C7.66398 19.8862 7.60673 19.8592 7.56491 19.8146C7.5231 19.77 7.49988 19.7111 7.5 19.65V11.655C7.5 11.5913 7.52529 11.5303 7.5703 11.4853C7.6153 11.4403 7.67635 11.415 7.74 11.415H9.885C10.2326 10.7543 10.7517 10.1995 11.3878 9.80888C12.024 9.41823 12.7536 9.20617 13.5 9.195H17.175C17.2126 9.18568 17.2518 9.18504 17.2896 9.19312C17.3275 9.2012 17.363 9.2178 17.3935 9.24165C17.424 9.2655 17.4487 9.29599 17.4656 9.33079C17.4826 9.36558 17.4914 9.40379 17.4914 9.4425C17.4914 9.48121 17.4826 9.51942 17.4656 9.55422C17.4487 9.58901 17.424 9.6195 17.3935 9.64335C17.363 9.6672 17.3275 9.6838 17.2896 9.69188C17.2518 9.69996 17.2126 9.69932 17.175 9.69H13.5C12.8207 9.69882 12.1574 9.8973 11.5849 10.2631C11.0124 10.6288 10.5535 11.1473 10.26 11.76C10.239 11.8026 10.2071 11.8389 10.1676 11.8652C10.1281 11.8915 10.0824 11.907 10.035 11.91H7.965V19.41H8.37C8.43365 19.41 8.4947 19.4353 8.53971 19.4803C8.58471 19.5253 8.61 19.5863 8.61 19.65C8.61 19.7137 8.58471 19.7747 8.53971 19.8197C8.4947 19.8647 8.43365 19.89 8.37 19.89Z" fill="#4A95D1"/>
<path d="M28.29 22.875H26.52C26.4563 22.875 26.3953 22.8497 26.3503 22.8047C26.3053 22.7596 26.28 22.6986 26.28 22.635C26.28 22.5713 26.3053 22.5103 26.3503 22.4652C26.3953 22.4202 26.4563 22.395 26.52 22.395H28.02V13.77H25.65C25.6158 13.7702 25.5819 13.7632 25.5507 13.7493C25.5194 13.7354 25.4915 13.715 25.4687 13.6894C25.446 13.6638 25.429 13.6337 25.4189 13.601C25.4087 13.5684 25.4057 13.5339 25.41 13.5C25.14 11.445 23.325 10.305 20.295 10.305C20.2313 10.305 20.1703 10.2797 20.1253 10.2347C20.0803 10.1896 20.055 10.1286 20.055 10.065C20.055 10.0013 20.0803 9.94025 20.1253 9.89525C20.1703 9.85024 20.2313 9.82495 20.295 9.82495C24.54 9.82495 25.62 11.865 25.86 13.23H28.29C28.3216 13.2337 28.3522 13.2436 28.3799 13.2592C28.4076 13.2749 28.432 13.2958 28.4515 13.321C28.4711 13.3461 28.4854 13.3749 28.4937 13.4056C28.5021 13.4363 28.5042 13.4684 28.5 13.5V22.6049C28.5042 22.6365 28.5021 22.6686 28.4937 22.6993C28.4854 22.73 28.4711 22.7588 28.4515 22.7839C28.432 22.8091 28.4076 22.83 28.3799 22.8457C28.3522 22.8613 28.3216 22.8712 28.29 22.875Z" fill="#6C6D70"/>
<path d="M19.5 26.115C19.3366 26.1186 19.1743 26.0869 19.0242 26.0222C18.8741 25.9575 18.7396 25.8613 18.63 25.74L18.3 25.365C18.2568 25.318 18.2328 25.2564 18.2328 25.1925C18.2328 25.1286 18.2568 25.0671 18.3 25.02C18.3224 24.9969 18.3492 24.9785 18.3788 24.9659C18.4084 24.9534 18.4403 24.9469 18.4725 24.9469C18.5047 24.9469 18.5365 24.9534 18.5662 24.9659C18.5958 24.9785 18.6226 24.9969 18.645 25.02L18.975 25.395C19.0489 25.4652 19.136 25.52 19.2313 25.556C19.3266 25.5921 19.4282 25.6088 19.53 25.605C19.7873 25.586 20.0306 25.4802 20.22 25.305C20.3336 25.2129 20.4278 25.0992 20.4974 24.9705C20.5669 24.8417 20.6102 24.7006 20.625 24.555C20.6372 24.3819 20.5836 24.2105 20.475 24.075L18.3 21.615C18.2773 21.594 18.2592 21.5684 18.2468 21.54C18.2344 21.5117 18.228 21.481 18.228 21.45C18.228 21.4191 18.2344 21.3884 18.2468 21.36C18.2592 21.3316 18.2773 21.3061 18.3 21.285C18.3224 21.2619 18.3492 21.2435 18.3788 21.2309C18.4084 21.2184 18.4403 21.2119 18.4725 21.2119C18.5047 21.2119 18.5365 21.2184 18.5662 21.2309C18.5958 21.2435 18.6226 21.2619 18.645 21.285L21.75 24.75C21.9313 24.8999 22.1634 24.9741 22.398 24.9573C22.6326 24.9406 22.8518 24.8341 23.01 24.66C23.2015 24.4851 23.3327 24.2541 23.385 24C23.4103 23.9012 23.4113 23.7977 23.3878 23.6984C23.3643 23.5991 23.317 23.507 23.25 23.43L18.675 18.27C18.6409 18.2275 18.6223 18.1746 18.6223 18.12C18.6223 18.0655 18.6409 18.0126 18.675 17.97C18.6943 17.9393 18.7208 17.9137 18.7521 17.8954C18.7834 17.8772 18.8187 17.8667 18.855 17.865C18.8846 17.8479 18.9183 17.8389 18.9525 17.8389C18.9867 17.8389 19.0204 17.8479 19.05 17.865L23.55 22.89C23.7289 23.0389 23.9585 23.1127 24.1906 23.0959C24.4228 23.0792 24.6394 22.9731 24.795 22.8C24.9954 22.6301 25.1328 22.3976 25.185 22.14C25.2028 22.0408 25.2 21.9391 25.1767 21.841C25.1535 21.7429 25.1104 21.6507 25.05 21.57L20.1 16.155C20.0692 16.1189 20.0491 16.0748 20.042 16.0279C20.0348 15.9809 20.041 15.9329 20.0597 15.8892C20.0784 15.8455 20.109 15.808 20.1479 15.7807C20.1868 15.7535 20.2326 15.7377 20.28 15.735C20.3474 15.7083 20.4225 15.7083 20.49 15.735L25.245 21.12C25.3108 21.1967 25.3945 21.256 25.4887 21.2926C25.5829 21.3292 25.6847 21.3421 25.785 21.33C26.0494 21.3224 26.3012 21.2153 26.49 21.03C26.681 20.8992 26.8131 20.6986 26.8579 20.4715C26.9028 20.2444 26.8569 20.0087 26.73 19.815L23.235 15.81C23.2119 15.7876 23.1935 15.7608 23.1809 15.7312C23.1683 15.7016 23.1619 15.6697 23.1619 15.6375C23.1619 15.6053 23.1683 15.5735 23.1809 15.5438C23.1935 15.5142 23.2119 15.4874 23.235 15.465C23.282 15.4218 23.3436 15.3978 23.4075 15.3978C23.4714 15.3978 23.5329 15.4218 23.58 15.465L27.105 19.5C27.3145 19.7962 27.4003 20.1624 27.3443 20.5209C27.2883 20.8793 27.0949 21.2018 26.805 21.42C26.5285 21.6718 26.1734 21.8202 25.8 21.84H25.59C25.605 21.9746 25.605 22.1104 25.59 22.245C25.5189 22.6066 25.3288 22.934 25.05 23.175C24.89 23.3198 24.7029 23.4314 24.4995 23.5035C24.2961 23.5756 24.0805 23.6067 23.865 23.595C23.8949 23.7435 23.8949 23.8965 23.865 24.045C23.7939 24.4066 23.6038 24.734 23.325 24.975C23.0669 25.2288 22.7194 25.371 22.3575 25.371C21.9955 25.371 21.6481 25.2288 21.39 24.975L21.105 24.645C21.0356 25.0039 20.852 25.3306 20.5817 25.5766C20.3114 25.8226 19.9688 25.9746 19.605 26.01L19.5 26.115Z" fill="#4A95D1"/>
<path d="M10.5 22.17C10.1627 22.1629 9.8346 22.0587 9.55498 21.87C9.26276 21.6189 9.06662 21.2744 8.99998 20.895C8.95399 20.7081 8.94895 20.5135 8.9852 20.3245C9.02144 20.1355 9.09812 19.9566 9.20998 19.8L10.32 18.3C10.5577 17.9945 10.9042 17.7927 11.2872 17.7368C11.6701 17.6809 12.0599 17.7752 12.375 18C12.7095 18.2307 12.945 18.5787 13.035 18.975C13.1083 19.3534 13.0331 19.7455 12.825 20.07L11.715 21.57C11.5791 21.764 11.3966 21.9206 11.1843 22.0255C10.9719 22.1303 10.7366 22.18 10.5 22.17ZM11.385 18.15C11.2368 18.147 11.0901 18.1795 10.957 18.2447C10.8239 18.3099 10.7084 18.406 10.62 18.525L9.52498 20.025C9.45054 20.1275 9.39982 20.2452 9.37647 20.3698C9.35312 20.4943 9.35774 20.6224 9.38998 20.745C9.45288 21.0132 9.61328 21.2484 9.83998 21.405C9.94553 21.4998 10.0697 21.5715 10.2045 21.6156C10.3394 21.6597 10.4819 21.6752 10.6231 21.6611C10.7643 21.647 10.9009 21.6036 11.0244 21.5336C11.1478 21.4637 11.2553 21.3688 11.34 21.255L12.435 19.755C12.5094 19.6524 12.5601 19.5347 12.5835 19.4101C12.6068 19.2856 12.6022 19.1575 12.57 19.035C12.5053 18.7874 12.3623 18.5674 12.1622 18.4078C11.9621 18.2483 11.7158 18.1578 11.46 18.15H11.385Z" fill="#6C6D70"/>
<path d="M12.825 23.76C12.4751 23.7591 12.1342 23.649 11.85 23.445C11.6709 23.3193 11.5189 23.1589 11.403 22.9734C11.287 22.7879 11.2095 22.581 11.175 22.365C11.1382 22.1489 11.1444 21.9277 11.1933 21.7141C11.2423 21.5004 11.3329 21.2985 11.46 21.12L13.11 18.78C13.2369 18.6015 13.3977 18.4498 13.5833 18.3336C13.7689 18.2174 13.9756 18.1389 14.1916 18.1027C14.4075 18.0664 14.6285 18.0732 14.8419 18.1225C15.0553 18.1718 15.2568 18.2627 15.435 18.39C15.6168 18.5143 15.7716 18.674 15.8902 18.8596C16.0088 19.0452 16.0886 19.2528 16.125 19.47C16.1618 19.6861 16.1555 19.9073 16.1066 20.1209C16.0577 20.3346 15.9671 20.5364 15.84 20.715L14.19 23.055C13.9337 23.4142 13.5452 23.657 13.11 23.73L12.825 23.76ZM14.475 18.57C14.2847 18.5681 14.0967 18.6121 13.927 18.6983C13.7573 18.7845 13.6108 18.9102 13.5 19.065L11.85 21.405C11.7595 21.5317 11.6956 21.6755 11.6621 21.8276C11.6285 21.9797 11.6261 22.1369 11.655 22.29C11.6787 22.4435 11.7334 22.5905 11.816 22.722C11.8985 22.8536 12.0071 22.9669 12.135 23.055C12.2617 23.1455 12.4055 23.2094 12.5576 23.2429C12.7096 23.2764 12.8669 23.2788 13.02 23.25C13.1735 23.2263 13.3205 23.1715 13.452 23.089C13.5836 23.0064 13.6969 22.8979 13.785 22.77L15.45 20.445C15.6297 20.1875 15.6998 19.8692 15.645 19.56C15.5913 19.2479 15.4194 18.9685 15.165 18.78C14.9628 18.6391 14.7213 18.5656 14.475 18.57Z" fill="#6C6D70"/>
<path d="M15.15 25.41C14.8442 25.4075 14.5449 25.3216 14.2843 25.1615C14.0237 25.0015 13.8118 24.7733 13.6713 24.5016C13.5309 24.23 13.4672 23.9252 13.4873 23.62C13.5073 23.3149 13.6102 23.021 13.785 22.77L15.585 20.25C15.7093 20.0682 15.869 19.9133 16.0546 19.7948C16.2401 19.6762 16.4478 19.5963 16.665 19.56C16.9895 19.5081 17.3222 19.5526 17.6217 19.6879C17.9212 19.8232 18.1745 20.0434 18.3501 20.3212C18.5258 20.599 18.616 20.9223 18.6098 21.2509C18.6036 21.5795 18.501 21.8991 18.315 22.17L16.5 24.705C16.3491 24.9232 16.1473 25.1015 15.9121 25.2243C15.6769 25.3471 15.4153 25.4108 15.15 25.41ZM14.19 23.055C14.0241 23.3119 13.9639 23.6231 14.0222 23.9234C14.0804 24.2237 14.2525 24.4898 14.5024 24.6661C14.7524 24.8424 15.0608 24.9152 15.3632 24.8694C15.6656 24.8235 15.9386 24.6625 16.125 24.42L17.91 21.9C18.0018 21.7724 18.0674 21.6278 18.1028 21.4746C18.1382 21.3214 18.1428 21.1628 18.1162 21.0078C18.0897 20.8528 18.0326 20.7047 17.9483 20.572C17.8639 20.4393 17.754 20.3248 17.625 20.235C17.3671 20.0581 17.0503 19.9889 16.7421 20.0421C16.4339 20.0954 16.1586 20.2668 15.975 20.52L14.19 23.055Z" fill="#6C6D70"/>
<path d="M17.025 26.805C16.7412 26.7969 16.4655 26.7085 16.23 26.55C15.9502 26.3551 15.7567 26.0594 15.69 25.725C15.6513 25.5637 15.6473 25.396 15.6784 25.2331C15.7094 25.0702 15.7747 24.9157 15.87 24.78L17.37 22.62C17.466 22.4865 17.5892 22.3747 17.7313 22.292C17.8735 22.2093 18.0315 22.1575 18.195 22.14C18.5337 22.0985 18.8757 22.184 19.155 22.38C19.4323 22.5715 19.6237 22.8639 19.6881 23.1947C19.7526 23.5255 19.6851 23.8683 19.5 24.15L18 26.295C17.8908 26.4525 17.7451 26.5812 17.5753 26.67C17.4055 26.7588 17.2166 26.8051 17.025 26.805ZM18.39 22.605H18.285C18.1872 22.6153 18.0926 22.646 18.0073 22.6951C17.9221 22.7442 17.8481 22.8106 17.79 22.89L16.29 25.05C16.2352 25.1302 16.1976 25.221 16.1795 25.3165C16.1614 25.412 16.1633 25.5102 16.185 25.605C16.2344 25.8192 16.363 26.0067 16.545 26.13C16.7087 26.2598 16.9169 26.3201 17.1246 26.2976C17.3323 26.2752 17.5229 26.1718 17.655 26.01L19.155 23.85C19.2625 23.6699 19.296 23.4552 19.2484 23.251C19.2009 23.0468 19.076 22.869 18.9 22.755C18.749 22.6548 18.5712 22.6025 18.39 22.605Z" fill="#6C6D70"/>
<path d="M14.805 16.4999C13.9653 16.5232 13.1489 16.2224 12.525 15.6599C12.47 15.6094 12.4261 15.5479 12.3961 15.4795C12.366 15.4111 12.3505 15.3372 12.3505 15.2624C12.3505 15.1877 12.366 15.1138 12.3961 15.0454C12.4261 14.977 12.47 14.9155 12.525 14.8649L16.635 10.7549C17.1075 10.3408 17.6825 10.0611 18.3 9.94495C18.615 9.94495 20.895 9.94495 21.15 9.94495C21.215 9.94878 21.2761 9.97732 21.3207 10.0247C21.3653 10.0721 21.3901 10.1348 21.39 10.1999C21.383 10.2637 21.3534 10.3229 21.3067 10.3669C21.26 10.4109 21.1991 10.4368 21.135 10.4399C20.175 10.4399 18.57 10.4399 18.36 10.4399C17.8461 10.5453 17.3666 10.7773 16.965 11.1149L12.84 15.1499C12.84 15.1499 12.84 15.1499 12.84 15.2999C13.2857 15.6621 13.8294 15.8827 14.4014 15.9335C14.9734 15.9842 15.5475 15.8629 16.05 15.5849L18.735 12.9149C18.7642 12.8815 18.802 12.8567 18.8444 12.8435C18.8868 12.8303 18.932 12.829 18.975 12.8399C19.0148 12.8487 19.0519 12.8669 19.0833 12.893C19.1146 12.9191 19.1392 12.9524 19.155 12.9899C19.2552 13.3236 19.4251 13.6321 19.6534 13.8951C19.8818 14.1582 20.1634 14.3697 20.4796 14.5158C20.7958 14.6618 21.1394 14.7391 21.4877 14.7424C21.836 14.7457 22.1811 14.675 22.5 14.5349H22.635C22.8791 14.4455 23.115 14.3351 23.34 14.2049C23.3666 14.1852 23.3969 14.1712 23.4291 14.1638C23.4613 14.1564 23.4947 14.1557 23.5272 14.1618C23.5597 14.1678 23.5906 14.1806 23.618 14.1992C23.6453 14.2178 23.6685 14.2418 23.6862 14.2698C23.7038 14.2978 23.7154 14.3291 23.7204 14.3618C23.7253 14.3945 23.7234 14.4278 23.7149 14.4598C23.7063 14.4917 23.6913 14.5215 23.6706 14.5474C23.65 14.5732 23.6243 14.5945 23.595 14.6099C23.3428 14.7703 23.0704 14.8964 22.785 14.9849H22.635C21.9506 15.2451 21.1928 15.2348 20.5157 14.9562C19.8386 14.6775 19.2931 14.1515 18.99 13.4849L16.5 15.9449C16.0159 16.3199 15.4171 16.5159 14.805 16.4999Z" fill="#6C6D70"/>
<path d="M7.70999 21H3.77999C3.71634 21 3.6553 20.9747 3.61029 20.9297C3.56528 20.8847 3.53999 20.8237 3.53999 20.76C3.53999 20.6964 3.56528 20.6353 3.61029 20.5903C3.6553 20.5453 3.71634 20.52 3.77999 20.52H7.49999V10.8H3.77999C3.74363 10.7984 3.70803 10.7891 3.67557 10.7727C3.64312 10.7562 3.61456 10.733 3.59183 10.7045C3.56909 10.6761 3.5527 10.6432 3.54376 10.6079C3.53482 10.5726 3.53354 10.5358 3.53999 10.5C3.53999 10.4364 3.56528 10.3753 3.61029 10.3303C3.6553 10.2853 3.71634 10.26 3.77999 10.26H7.70999C7.7751 10.2599 7.83779 10.2847 7.8852 10.3293C7.93262 10.3739 7.96116 10.435 7.96499 10.5V20.715C7.96925 20.7509 7.96582 20.7873 7.95492 20.8218C7.94403 20.8563 7.92592 20.8881 7.9018 20.915C7.87769 20.942 7.84811 20.9635 7.81504 20.9782C7.78197 20.9928 7.74616 21.0003 7.70999 21Z" fill="#4A95D1"/>
</svg>
