<svg width="36" height="36" viewBox="0 0 36 36" fill="none" xmlns="http://www.w3.org/2000/svg">
<path d="M25.5 16.5C25.4165 16.5 25.3364 16.4669 25.2773 16.4078C25.2182 16.3487 25.185 16.2686 25.185 16.185V9.90004C25.185 9.77671 25.136 9.65844 25.0488 9.57123C24.9616 9.48403 24.8433 9.43504 24.72 9.43504H8.13002C8.00527 9.43498 7.8854 9.48349 7.7958 9.57028C7.70621 9.65708 7.65392 9.77535 7.65002 9.90004V16.23C7.65002 16.3136 7.61683 16.3937 7.55776 16.4528C7.49868 16.5119 7.41856 16.545 7.33502 16.545C7.25148 16.545 7.17136 16.5119 7.11228 16.4528C7.05321 16.3937 7.02002 16.3136 7.02002 16.23V9.90004C7.02002 9.60565 7.13697 9.32332 7.34513 9.11515C7.5533 8.90699 7.83563 8.79004 8.13002 8.79004H24.72C25.0118 8.79398 25.2903 8.91267 25.4952 9.12041C25.7002 9.32815 25.815 9.60823 25.815 9.90004V16.23C25.8041 16.3056 25.7662 16.3746 25.7082 16.4242C25.6503 16.4739 25.5763 16.5008 25.5 16.5Z" fill="#6C6D70"/>
<path d="M17.61 22.0651H10.89C10.8065 22.0651 10.7263 22.0319 10.6673 21.9728C10.6082 21.9137 10.575 21.8336 10.575 21.7501C10.575 21.6665 10.6082 21.5864 10.6673 21.5273C10.7263 21.4682 10.8065 21.4351 10.89 21.4351H17.61C17.6936 21.4351 17.7737 21.4682 17.8327 21.5273C17.8918 21.5864 17.925 21.6665 17.925 21.7501C17.925 21.8336 17.8918 21.9137 17.8327 21.9728C17.7737 22.0319 17.6936 22.0651 17.61 22.0651Z" fill="#6C6D70"/>
<path d="M19.575 27.2101H13.26C13.2173 27.2101 13.1751 27.2015 13.1359 27.1847C13.0967 27.168 13.0612 27.1434 13.0318 27.1126C13.0023 27.0817 12.9794 27.0452 12.9645 27.0052C12.9496 26.9652 12.943 26.9227 12.945 26.8801V26.1001C12.9432 26.0362 12.9609 25.9733 12.9958 25.9197C13.0306 25.8661 13.0809 25.8244 13.14 25.8001C13.215 25.8001 14.895 25.0201 14.91 21.7501C14.9139 21.6652 14.9503 21.585 15.0118 21.5264C15.0733 21.4677 15.155 21.435 15.24 21.4351H17.61C17.6935 21.4351 17.7737 21.4682 17.8327 21.5273C17.8918 21.5864 17.925 21.6665 17.925 21.7501C17.925 21.8336 17.8918 21.9137 17.8327 21.9728C17.7737 22.0319 17.6935 22.0651 17.61 22.0651H15.54C15.6034 22.8795 15.4559 23.6966 15.1118 24.4375C14.7676 25.1784 14.2383 25.8182 13.575 26.2951V26.5651H19.575C19.6232 26.5546 19.673 26.5551 19.721 26.5664C19.7689 26.5778 19.8137 26.5997 19.8521 26.6307C19.8905 26.6616 19.9214 26.7007 19.9427 26.7452C19.9639 26.7896 19.975 26.8383 19.975 26.8876C19.975 26.9368 19.9639 26.9855 19.9427 27.0299C19.9214 27.0744 19.8905 27.1135 19.8521 27.1444C19.8137 27.1754 19.7689 27.1973 19.721 27.2087C19.673 27.22 19.6232 27.2205 19.575 27.2101Z" fill="#6C6D70"/>
<path d="M10.11 27.21H4.57503C4.28064 27.21 3.9983 27.0931 3.79014 26.8849C3.58197 26.6768 3.46503 26.3944 3.46503 26.1V17.01C3.46503 16.8643 3.49374 16.7199 3.54952 16.5852C3.6053 16.4506 3.68707 16.3282 3.79014 16.2251C3.89321 16.1221 4.01558 16.0403 4.15025 15.9845C4.28492 15.9287 4.42926 15.9 4.57503 15.9H10.11C10.4018 15.904 10.6803 16.0227 10.8852 16.2304C11.0902 16.4381 11.2051 16.7182 11.205 17.01V26.1C11.2051 26.3918 11.0902 26.6719 10.8852 26.8797C10.6803 27.0874 10.4018 27.2061 10.11 27.21ZM4.57503 16.5C4.51396 16.5 4.4535 16.5121 4.39708 16.5354C4.34066 16.5588 4.2894 16.593 4.24622 16.6362C4.20304 16.6794 4.16879 16.7307 4.14542 16.7871C4.12205 16.8435 4.11003 16.904 4.11003 16.965V26.1C4.11003 26.2234 4.15902 26.3416 4.24622 26.4288C4.33343 26.516 4.4517 26.565 4.57503 26.565H10.11C10.2334 26.565 10.3516 26.516 10.4388 26.4288C10.526 26.3416 10.575 26.2234 10.575 26.1V17.01C10.5813 16.9453 10.574 16.8799 10.5534 16.8182C10.5329 16.7565 10.4997 16.6998 10.4558 16.6517C10.412 16.6037 10.3586 16.5653 10.299 16.5392C10.2395 16.5131 10.1751 16.4997 10.11 16.5H4.57503Z" fill="#6C6D70"/>
<path d="M31.035 27.21H17.535C17.1372 27.21 16.7557 27.0519 16.4744 26.7706C16.1931 26.4893 16.035 26.1078 16.035 25.71V24.93C16.035 24.8425 16.0698 24.7585 16.1317 24.6966C16.1936 24.6347 16.2775 24.6 16.365 24.6H32.22C32.3049 24.6038 32.3851 24.6403 32.4437 24.7018C32.5024 24.7633 32.5351 24.845 32.535 24.93V25.71C32.535 26.1078 32.377 26.4893 32.0957 26.7706C31.8144 27.0519 31.4329 27.21 31.035 27.21ZM16.74 25.23V25.695C16.74 25.9257 16.8317 26.147 16.9949 26.3102C17.158 26.4733 17.3793 26.565 17.61 26.565H31.11C31.2236 26.565 31.336 26.5424 31.4407 26.4985C31.5455 26.4546 31.6404 26.3903 31.72 26.3093C31.7996 26.2283 31.8622 26.1323 31.9043 26.0268C31.9464 25.9213 31.967 25.8085 31.965 25.695V25.23H16.74Z" fill="#6C6D70"/>
<path d="M31.035 25.23H17.535C17.45 25.2301 17.3683 25.1974 17.3068 25.1387C17.2453 25.0801 17.2089 24.9999 17.205 24.915V17.01C17.205 16.8643 17.2337 16.7199 17.2895 16.5852C17.3453 16.4506 17.4271 16.3282 17.5301 16.2251C17.6332 16.1221 17.7556 16.0403 17.8902 15.9845C18.0249 15.9287 18.1692 15.9 18.315 15.9H30.165C30.3108 15.9 30.4551 15.9287 30.5898 15.9845C30.7245 16.0403 30.8468 16.1221 30.9499 16.2251C31.053 16.3282 31.1347 16.4506 31.1905 16.5852C31.2463 16.7199 31.275 16.8643 31.275 17.01V24.915C31.2745 24.9864 31.2508 25.0557 31.2075 25.1125C31.1642 25.1693 31.1037 25.2106 31.035 25.23ZM18 24.585H30.78V17.01C30.78 16.949 30.768 16.8885 30.7446 16.8321C30.7212 16.7757 30.687 16.7244 30.6438 16.6812C30.6006 16.638 30.5494 16.6038 30.493 16.5804C30.4365 16.5571 30.3761 16.545 30.315 16.545H18.465C18.404 16.545 18.3435 16.5571 18.2871 16.5804C18.2307 16.6038 18.1794 16.638 18.1362 16.6812C18.093 16.7244 18.0588 16.7757 18.0354 16.8321C18.012 16.8885 18 16.949 18 17.01V24.585Z" fill="#6C6D70"/>
<path d="M10.89 18.51H3.78003C3.69648 18.51 3.61636 18.4768 3.55729 18.4177C3.49821 18.3587 3.46503 18.2785 3.46503 18.195C3.46503 18.1115 3.49821 18.0313 3.55729 17.9723C3.61636 17.9132 3.69648 17.88 3.78003 17.88H10.89C10.9736 17.88 11.0537 17.9132 11.1128 17.9723C11.1718 18.0313 11.205 18.1115 11.205 18.195C11.205 18.2785 11.1718 18.3587 11.1128 18.4177C11.0537 18.4768 10.9736 18.51 10.89 18.51Z" fill="#6C6D70"/>
<path d="M7.33503 24.84C6.88305 24.8399 6.44117 24.7064 6.06479 24.4561C5.68842 24.2059 5.39431 23.8501 5.21937 23.4333C5.04442 23.0166 4.99642 22.5575 5.08139 22.1136C5.16635 21.6696 5.3805 21.2607 5.69698 20.938C6.01345 20.6153 6.41816 20.3933 6.86035 20.2997C7.30253 20.2062 7.76249 20.2452 8.18255 20.4121C8.60261 20.5789 8.96406 20.866 9.22157 21.2375C9.47907 21.6089 9.62117 22.0481 9.63003 22.5C9.63399 22.8046 9.57766 23.107 9.46429 23.3898C9.35091 23.6725 9.18273 23.93 8.96942 24.1475C8.75611 24.365 8.50189 24.5382 8.22139 24.657C7.94089 24.7759 7.63966 24.838 7.33503 24.84ZM7.33503 20.88C7.00383 20.8801 6.68019 20.979 6.4055 21.164C6.1308 21.3491 5.91752 21.6118 5.79293 21.9187C5.66834 22.2255 5.6381 22.5626 5.70608 22.8867C5.77406 23.2109 5.93716 23.5074 6.17454 23.7383C6.41192 23.9693 6.71278 24.1242 7.03867 24.1833C7.36455 24.2424 7.70065 24.2029 8.00399 24.07C8.30734 23.937 8.56414 23.7166 8.74156 23.437C8.91899 23.1573 9.00898 22.8311 9.00003 22.5C8.9883 22.0663 8.80772 21.6542 8.49673 21.3517C8.18575 21.0491 7.76893 20.8798 7.33503 20.88Z" fill="#6C6D70"/>
<path d="M8.81999 24.09C8.75254 24.1167 8.67744 24.1167 8.60999 24.09L7.10999 22.86C7.05881 22.8172 7.02253 22.7594 7.00635 22.6947C6.99018 22.63 6.99495 22.5618 7.01999 22.5V20.565C7.01999 20.4815 7.05318 20.4013 7.11225 20.3423C7.17133 20.2832 7.25145 20.25 7.33499 20.25C7.41853 20.25 7.49865 20.2832 7.55773 20.3423C7.6168 20.4013 7.64999 20.4815 7.64999 20.565V22.395L9.02999 23.535C9.06047 23.5665 9.08402 23.6041 9.09914 23.6453C9.11425 23.6865 9.1206 23.7304 9.11778 23.7741C9.11495 23.8179 9.10302 23.8606 9.08273 23.8995C9.06245 23.9384 9.03427 23.9726 8.99999 24C8.95214 24.0498 8.88856 24.0816 8.81999 24.09Z" fill="#6C6D70"/>
<path d="M20.28 14.85C20.0473 14.8488 19.8202 14.7782 19.6279 14.6473C19.4355 14.5164 19.2865 14.3311 19.2 14.115C19.08 13.86 18.72 13.38 18.495 13.38C18.27 13.38 18.225 13.38 17.91 13.92C17.6572 14.2815 17.2765 14.5335 16.845 14.625C16.7046 14.6337 16.564 14.6128 16.4323 14.5637C16.3005 14.5146 16.1805 14.4384 16.08 14.34C15.6058 13.8006 15.1979 13.2064 14.865 12.57C14.7553 12.3737 14.6351 12.1835 14.505 12C14.4 11.82 14.28 11.715 14.16 11.715C14.0826 11.7283 14.0101 11.7616 13.9496 11.8116C13.889 11.8616 13.8427 11.9266 13.815 12C13.32 12.825 12.315 14.205 11.52 14.22H9.48001C9.39646 14.22 9.31634 14.1869 9.25727 14.1278C9.19819 14.0687 9.16501 13.9886 9.16501 13.905C9.15062 13.8569 9.14794 13.8061 9.15718 13.7568C9.16642 13.7074 9.18733 13.661 9.21815 13.6214C9.24897 13.5817 9.28882 13.5501 9.33437 13.529C9.37992 13.5078 9.42985 13.4979 9.48001 13.5H11.52C11.865 13.5 12.6 12.705 13.26 11.61C13.3429 11.4413 13.4709 11.2988 13.6297 11.1982C13.7885 11.0976 13.972 11.0429 14.16 11.04C14.345 11.0472 14.5247 11.1039 14.6804 11.2041C14.836 11.3044 14.962 11.4446 15.045 11.61C15.135 11.73 15.27 11.955 15.42 12.21C15.7207 12.7966 16.0827 13.3497 16.5 13.86C16.5301 13.9033 16.5706 13.9384 16.6178 13.962C16.665 13.9856 16.7173 13.9969 16.77 13.995C17.0168 13.9291 17.2306 13.7741 17.37 13.56C17.4767 13.3417 17.6348 13.1525 17.8308 13.0088C18.0267 12.8651 18.2547 12.7711 18.495 12.735C19.23 12.735 19.755 13.83 19.755 13.845C19.7793 13.9182 19.8189 13.9853 19.8712 14.0418C19.9236 14.0984 19.9874 14.1431 20.0584 14.1729C20.1295 14.2028 20.2061 14.217 20.2831 14.2148C20.3601 14.2126 20.4358 14.1939 20.505 14.16C21.1039 13.7757 21.7901 13.5487 22.5 13.5H23.295C23.3377 13.5 23.3799 13.5086 23.4191 13.5254C23.4583 13.5421 23.4938 13.5667 23.5232 13.5975C23.5527 13.6284 23.5756 13.6649 23.5905 13.7049C23.6054 13.7448 23.612 13.7874 23.61 13.83C23.61 13.8714 23.6019 13.9124 23.586 13.9506C23.5702 13.9888 23.547 14.0235 23.5177 14.0528C23.4885 14.082 23.4538 14.1052 23.4155 14.1211C23.3773 14.1369 23.3364 14.145 23.295 14.145H22.5C21.9119 14.1873 21.3441 14.3782 20.85 14.7C20.6729 14.7901 20.4785 14.8412 20.28 14.85Z" fill="#6C6D70"/>
<path d="M17.61 20.1H10.89C10.8473 20.1001 10.8051 20.0914 10.7659 20.0747C10.7267 20.0579 10.6912 20.0334 10.6618 20.0025C10.6323 19.9717 10.6095 19.9351 10.5945 19.8952C10.5796 19.8552 10.573 19.8126 10.575 19.77C10.5859 19.6945 10.6238 19.6255 10.6818 19.5758C10.7397 19.5262 10.8137 19.4992 10.89 19.5H17.61C17.6837 19.516 17.7496 19.5567 17.7969 19.6154C17.8442 19.674 17.87 19.7471 17.87 19.8225C17.87 19.8979 17.8442 19.971 17.7969 20.0297C17.7496 20.0883 17.6837 20.129 17.61 20.145V20.1Z" fill="#6C6D70"/>
<path d="M16.02 18.12H12.465C12.3815 18.12 12.3014 18.0868 12.2423 18.0277C12.1832 17.9687 12.15 17.8885 12.15 17.805C12.15 17.7214 12.1832 17.6413 12.2423 17.5823C12.3014 17.5232 12.3815 17.49 12.465 17.49H16.02C16.1036 17.49 16.1837 17.5232 16.2428 17.5823C16.3018 17.6413 16.335 17.7214 16.335 17.805C16.335 17.8885 16.3018 17.9687 16.2428 18.0277C16.1837 18.0868 16.1036 18.12 16.02 18.12Z" fill="#6C6D70"/>
<path d="M16.02 16.5H12.465C12.3913 16.4841 12.3254 16.4433 12.2781 16.3847C12.2308 16.326 12.205 16.2529 12.205 16.1775C12.205 16.1022 12.2308 16.0291 12.2781 15.9704C12.3254 15.9117 12.3913 15.871 12.465 15.855H16.02C16.0682 15.8446 16.118 15.8451 16.166 15.8564C16.2139 15.8678 16.2587 15.8897 16.2971 15.9206C16.3355 15.9516 16.3664 15.9907 16.3877 16.0352C16.4089 16.0796 16.42 16.1283 16.42 16.1775C16.42 16.2268 16.4089 16.2755 16.3877 16.3199C16.3664 16.3644 16.3355 16.4035 16.2971 16.4344C16.2587 16.4654 16.2139 16.4873 16.166 16.4987C16.118 16.51 16.0682 16.5105 16.02 16.5Z" fill="#6C6D70"/>
<path d="M20.37 18.915H19.575C19.5013 18.899 19.4354 18.8583 19.3881 18.7997C19.3407 18.741 19.3149 18.6679 19.3149 18.5925C19.3149 18.5171 19.3407 18.4441 19.3881 18.3854C19.4354 18.3267 19.5013 18.286 19.575 18.27H20.37C20.4126 18.27 20.4549 18.2786 20.4941 18.2953C20.5333 18.3121 20.5687 18.3367 20.5982 18.3675C20.6277 18.3984 20.6505 18.4349 20.6655 18.4749C20.6804 18.5148 20.687 18.5574 20.685 18.6C20.685 18.6836 20.6518 18.7637 20.5927 18.8228C20.5337 18.8818 20.4535 18.915 20.37 18.915Z" fill="#6C6D70"/>
<path d="M20.37 20.88H19.575C19.4915 20.88 19.4113 20.8468 19.3523 20.7877C19.2932 20.7287 19.26 20.6485 19.26 20.565C19.26 20.4815 19.2932 20.4013 19.3523 20.3423C19.4113 20.2832 19.4915 20.25 19.575 20.25H20.37C20.4536 20.25 20.5337 20.2832 20.5927 20.3423C20.6518 20.4013 20.685 20.4815 20.685 20.565C20.685 20.6485 20.6518 20.7287 20.5927 20.7877C20.5337 20.8468 20.4536 20.88 20.37 20.88Z" fill="#6C6D70"/>
<path d="M20.37 22.86H19.575C19.5013 22.844 19.4354 22.8033 19.3881 22.7446C19.3407 22.6859 19.3149 22.6128 19.3149 22.5375C19.3149 22.4621 19.3407 22.389 19.3881 22.3303C19.4354 22.2717 19.5013 22.2309 19.575 22.215H20.37C20.4126 22.2149 20.4549 22.2235 20.4941 22.2403C20.5333 22.2571 20.5687 22.2816 20.5982 22.3125C20.6277 22.3433 20.6505 22.3798 20.6655 22.4198C20.6804 22.4598 20.687 22.5024 20.685 22.545C20.685 22.6285 20.6518 22.7086 20.5927 22.7677C20.5337 22.8268 20.4535 22.86 20.37 22.86Z" fill="#6C6D70"/>
<path d="M29.055 18.915H22.35C22.3019 18.9254 22.252 18.9249 22.204 18.9136C22.1561 18.9022 22.1113 18.8803 22.0729 18.8493C22.0346 18.8184 22.0036 18.7793 21.9824 18.7348C21.9611 18.6904 21.9501 18.6417 21.9501 18.5925C21.9501 18.5432 21.9611 18.4945 21.9824 18.4501C22.0036 18.4056 22.0346 18.3665 22.0729 18.3356C22.1113 18.3046 22.1561 18.2827 22.204 18.2713C22.252 18.26 22.3019 18.2595 22.35 18.27H29.055C29.0977 18.2699 29.1399 18.2785 29.1791 18.2953C29.2184 18.312 29.2538 18.3366 29.2832 18.3675C29.3127 18.3983 29.3356 18.4348 29.3505 18.4748C29.3654 18.5148 29.3721 18.5573 29.37 18.6C29.37 18.6835 29.3368 18.7636 29.2778 18.8227C29.2187 18.8818 29.1386 18.915 29.055 18.915Z" fill="#6C6D70"/>
<path d="M27.075 20.88H22.35C22.2664 20.88 22.1863 20.8468 22.1272 20.7877C22.0682 20.7287 22.035 20.6485 22.035 20.565C22.035 20.4815 22.0682 20.4013 22.1272 20.3423C22.1863 20.2832 22.2664 20.25 22.35 20.25H27.075C27.1585 20.25 27.2386 20.2832 27.2977 20.3423C27.3568 20.4013 27.39 20.4815 27.39 20.565C27.39 20.6485 27.3568 20.7287 27.2977 20.7877C27.2386 20.8468 27.1585 20.88 27.075 20.88Z" fill="#6C6D70"/>
<path d="M24.72 22.86H22.35C22.3019 22.8705 22.252 22.87 22.204 22.8586C22.1561 22.8473 22.1113 22.8253 22.0729 22.7944C22.0346 22.7635 22.0036 22.7244 21.9824 22.6799C21.9611 22.6354 21.9501 22.5868 21.9501 22.5375C21.9501 22.4882 21.9611 22.4396 21.9824 22.3951C22.0036 22.3507 22.0346 22.3116 22.0729 22.2806C22.1113 22.2497 22.1561 22.2278 22.204 22.2164C22.252 22.205 22.3019 22.2046 22.35 22.215H24.72C24.7937 22.231 24.8597 22.2717 24.907 22.3304C24.9543 22.3891 24.9801 22.4621 24.9801 22.5375C24.9801 22.6129 24.9543 22.686 24.907 22.7447C24.8597 22.8033 24.7937 22.844 24.72 22.86Z" fill="#6C6D70"/>
</svg>
