<svg width="36" height="36" viewBox="0 0 36 36" fill="none" xmlns="http://www.w3.org/2000/svg">
<path d="M10.68 14.535C10.6426 14.535 10.6055 14.5277 10.5709 14.5133C10.5363 14.499 10.5049 14.478 10.4785 14.4516C10.452 14.4251 10.431 14.3937 10.4167 14.3591C10.4024 14.3245 10.395 14.2875 10.395 14.25V10.215C10.3929 10.1764 10.3988 10.1377 10.4122 10.1014C10.4256 10.065 10.4463 10.0318 10.473 10.0037C10.4996 9.97567 10.5317 9.95333 10.5673 9.93807C10.6029 9.92282 10.6413 9.91499 10.68 9.91504H13.68C13.7596 9.91504 13.8359 9.94665 13.8921 10.0029C13.9484 10.0592 13.98 10.1355 13.98 10.215C13.98 10.2946 13.9484 10.3709 13.8921 10.4272C13.8359 10.4834 13.7596 10.515 13.68 10.515H10.98V14.25C10.9761 14.327 10.9428 14.3995 10.887 14.4525C10.8311 14.5056 10.757 14.5351 10.68 14.535Z" fill="#6C6D70"/>
<path d="M17.28 26.64H14.715C14.6354 26.64 14.5591 26.6084 14.5028 26.5522C14.4466 26.4959 14.415 26.4196 14.415 26.34C14.415 26.2605 14.4466 26.1842 14.5028 26.1279C14.5591 26.0716 14.6354 26.04 14.715 26.04H17.28C17.3595 26.04 17.4358 26.0716 17.4921 26.1279C17.5484 26.1842 17.58 26.2605 17.58 26.34C17.58 26.4196 17.5484 26.4959 17.4921 26.5522C17.4358 26.6084 17.3595 26.64 17.28 26.64Z" fill="#6C6D70"/>
<path d="M24.615 21.87C24.5354 21.87 24.4591 21.8384 24.4029 21.7822C24.3466 21.7259 24.315 21.6496 24.315 21.57V10.5H21.675C21.5954 10.5 21.5191 10.4684 21.4629 10.4122C21.4066 10.3559 21.375 10.2796 21.375 10.2C21.375 10.1205 21.4066 10.0442 21.4629 9.98789C21.5191 9.93163 21.5954 9.90002 21.675 9.90002H24.675C24.7546 9.90002 24.8309 9.93163 24.8871 9.98789C24.9434 10.0442 24.975 10.1205 24.975 10.2V21.555C24.9783 21.6013 24.9708 21.6476 24.9532 21.6905C24.9355 21.7333 24.9082 21.7715 24.8733 21.802C24.8384 21.8325 24.797 21.8546 24.7521 21.8664C24.7073 21.8782 24.6604 21.8794 24.615 21.87Z" fill="#6C6D70"/>
<path d="M21.675 10.5001H13.62C13.5404 10.5001 13.4641 10.4685 13.4079 10.4122C13.3516 10.3559 13.32 10.2796 13.32 10.2001V7.20006C13.32 7.16133 13.3278 7.123 13.343 7.08741C13.3583 7.05182 13.3806 7.01971 13.4087 6.99303C13.4368 6.96636 13.47 6.94569 13.5063 6.93229C13.5427 6.91888 13.5813 6.91302 13.62 6.91505H16.02C16.1529 6.58959 16.379 6.31062 16.6699 6.11315C16.9608 5.91568 17.3035 5.8085 17.655 5.80505C18.0049 5.80748 18.3461 5.91447 18.6348 6.11226C18.9235 6.31005 19.1464 6.58961 19.275 6.91505H21.675C21.7137 6.91302 21.7524 6.91888 21.7887 6.93229C21.825 6.94569 21.8582 6.96636 21.8863 6.99303C21.9144 7.01971 21.9367 7.05182 21.952 7.08741C21.9672 7.123 21.9751 7.16133 21.975 7.20006V10.2001C21.975 10.2796 21.9434 10.3559 21.8871 10.4122C21.8309 10.4685 21.7546 10.5001 21.675 10.5001ZM13.92 9.90006H21.42V7.57506H19.065C18.9988 7.57654 18.9341 7.55488 18.882 7.51382C18.83 7.47275 18.7939 7.41484 18.78 7.35005C18.7205 7.09229 18.5754 6.86231 18.3683 6.69763C18.1613 6.53296 17.9046 6.4433 17.64 6.4433C17.3755 6.4433 17.1187 6.53296 16.9117 6.69763C16.7046 6.86231 16.5595 7.09229 16.5 7.35005C16.4861 7.41484 16.45 7.47275 16.398 7.51382C16.346 7.55488 16.2813 7.57654 16.215 7.57506H13.92V9.90006Z" fill="#6C6D70"/>
<path d="M8.84999 14.535C8.77296 14.5351 8.69884 14.5055 8.64299 14.4525C8.58714 14.3994 8.55384 14.3269 8.54999 14.25V8.38496C8.54999 8.3054 8.5816 8.22909 8.63786 8.17283C8.69412 8.11657 8.77042 8.08496 8.84999 8.08496H13.62C13.6996 8.08496 13.7759 8.11657 13.8321 8.17283C13.8884 8.22909 13.92 8.3054 13.92 8.38496C13.92 8.42368 13.9122 8.46201 13.897 8.49761C13.8817 8.5332 13.8594 8.56531 13.8313 8.59198C13.8032 8.61865 13.77 8.63932 13.7337 8.65273C13.6973 8.66614 13.6587 8.672 13.62 8.66996H9.11999V14.25C9.11674 14.322 9.08766 14.3904 9.03808 14.4428C8.9885 14.4951 8.92173 14.5278 8.84999 14.535Z" fill="#6C6D70"/>
<path d="M17.28 28.5H14.715C14.6354 28.5 14.5591 28.4684 14.5028 28.4122C14.4466 28.3559 14.415 28.2796 14.415 28.2C14.415 28.1205 14.4466 28.0442 14.5028 27.9879C14.5591 27.9316 14.6354 27.9 14.715 27.9H17.28C17.3595 27.9 17.4358 27.9316 17.4921 27.9879C17.5484 28.0442 17.58 28.1205 17.58 28.2C17.58 28.2796 17.5484 28.3559 17.4921 28.4122C17.4358 28.4684 17.3595 28.5 17.28 28.5Z" fill="#6C6D70"/>
<path d="M26.445 24.435C26.3654 24.435 26.2891 24.4033 26.2329 24.3471C26.1766 24.2908 26.145 24.2145 26.145 24.135V8.66996H21.645C21.6076 8.66996 21.5705 8.66259 21.5359 8.64827C21.5013 8.63394 21.4699 8.61295 21.4435 8.58649C21.417 8.56002 21.396 8.5286 21.3817 8.49403C21.3674 8.45945 21.36 8.42239 21.36 8.38496C21.3599 8.30793 21.3894 8.23381 21.4425 8.17796C21.4955 8.12211 21.568 8.08881 21.645 8.08496H26.415C26.4946 8.08496 26.5709 8.11657 26.6271 8.17283C26.6834 8.22909 26.715 8.3054 26.715 8.38496V24.135C26.7154 24.2096 26.6879 24.2817 26.638 24.3371C26.5881 24.3926 26.5192 24.4275 26.445 24.435Z" fill="#6C6D70"/>
<path d="M22.41 13.8H15.81C15.7713 13.8 15.7329 13.7922 15.6973 13.7769C15.6618 13.7617 15.6296 13.7393 15.603 13.7112C15.5763 13.6832 15.5556 13.65 15.5422 13.6136C15.5288 13.5773 15.523 13.5386 15.525 13.5C15.5249 13.4229 15.5544 13.3488 15.6075 13.293C15.6605 13.2371 15.7331 13.2038 15.81 13.2H22.41C22.4896 13.2 22.5659 13.2316 22.6221 13.2878C22.6784 13.3441 22.71 13.4204 22.71 13.5C22.7122 13.5399 22.7059 13.5799 22.6916 13.6173C22.6773 13.6546 22.6552 13.6886 22.6269 13.7169C22.5986 13.7452 22.5647 13.7672 22.5273 13.7815C22.4899 13.7958 22.45 13.8021 22.41 13.8Z" fill="#6C6D70"/>
<path d="M22.41 16.005H16.185C16.1054 16.005 16.0291 15.9733 15.9729 15.9171C15.9166 15.8608 15.885 15.7845 15.885 15.705C15.885 15.6662 15.8928 15.6279 15.908 15.5923C15.9233 15.5567 15.9456 15.5246 15.9737 15.4979C16.0018 15.4713 16.035 15.4506 16.0713 15.4372C16.1077 15.4238 16.1463 15.4179 16.185 15.42H22.41C22.4487 15.4179 22.4874 15.4238 22.5237 15.4372C22.56 15.4506 22.5932 15.4713 22.6213 15.4979C22.6494 15.5246 22.6717 15.5567 22.687 15.5923C22.7022 15.6279 22.7101 15.6662 22.71 15.705C22.71 15.7845 22.6784 15.8608 22.6221 15.9171C22.5659 15.9733 22.4896 16.005 22.41 16.005Z" fill="#6C6D70"/>
<path d="M22.41 20.775H16.185C16.1054 20.775 16.0291 20.7434 15.9729 20.6872C15.9166 20.6309 15.885 20.5546 15.885 20.475C15.885 20.3955 15.9166 20.3192 15.9729 20.2629C16.0291 20.2067 16.1054 20.175 16.185 20.175H22.41C22.4896 20.175 22.5659 20.2067 22.6221 20.2629C22.6784 20.3192 22.71 20.3955 22.71 20.475C22.71 20.5546 22.6784 20.6309 22.6221 20.6872C22.5659 20.7434 22.4896 20.775 22.41 20.775Z" fill="#6C6D70"/>
<path d="M22.41 18.57H16.185C16.1054 18.57 16.0291 18.5384 15.9729 18.4821C15.9166 18.4259 15.885 18.3496 15.885 18.27C15.885 18.2313 15.8928 18.193 15.908 18.1574C15.9233 18.1218 15.9456 18.0897 15.9737 18.063C16.0018 18.0363 16.035 18.0157 16.0713 18.0022C16.1077 17.9888 16.1463 17.983 16.185 17.985H22.41C22.4487 17.983 22.4874 17.9888 22.5237 18.0022C22.56 18.0157 22.5932 18.0363 22.6213 18.063C22.6494 18.0897 22.6717 18.1218 22.687 18.1574C22.7022 18.193 22.7101 18.2313 22.71 18.27C22.71 18.3496 22.6784 18.4259 22.6221 18.4821C22.5659 18.5384 22.4896 18.57 22.41 18.57Z" fill="#6C6D70"/>
<path d="M13.62 13.8H12.885C12.845 13.8021 12.8051 13.7958 12.7677 13.7815C12.7303 13.7672 12.6964 13.7452 12.6681 13.7169C12.6398 13.6886 12.6177 13.6546 12.6034 13.6173C12.5891 13.5799 12.5828 13.5399 12.585 13.5C12.585 13.4204 12.6166 13.3441 12.6729 13.2878C12.7291 13.2316 12.8054 13.2 12.885 13.2H13.62C13.6996 13.2 13.7759 13.2316 13.8321 13.2878C13.8884 13.3441 13.92 13.4204 13.92 13.5C13.9222 13.5399 13.9159 13.5799 13.9016 13.6173C13.8873 13.6546 13.8653 13.6886 13.837 13.7169C13.8087 13.7452 13.7747 13.7672 13.7373 13.7815C13.7 13.7958 13.66 13.8021 13.62 13.8Z" fill="#6C6D70"/>
<path d="M14.355 30H4.81503C4.63862 29.9961 4.47076 29.9233 4.3474 29.7971C4.22404 29.671 4.15499 29.5015 4.15503 29.325V16.08C4.15503 15.905 4.22457 15.7371 4.34834 15.6134C4.47211 15.4896 4.63999 15.42 4.81503 15.42H14.355C14.5301 15.42 14.698 15.4896 14.8217 15.6134C14.9455 15.7371 15.015 15.905 15.015 16.08V29.265C15.0233 29.3574 15.0124 29.4504 14.9832 29.5383C14.9539 29.6262 14.9069 29.7072 14.845 29.7761C14.783 29.8451 14.7076 29.9006 14.6233 29.9391C14.539 29.9776 14.4477 29.9984 14.355 30ZM4.81503 16.005V16.08V29.265H14.355V16.08V16.005H4.81503Z" fill="#6C6D70"/>
<path d="M13.245 19.665H6.00001C5.96134 19.667 5.92266 19.6612 5.88634 19.6478C5.85001 19.6344 5.81679 19.6137 5.78872 19.587C5.76064 19.5603 5.7383 19.5282 5.72305 19.4926C5.7078 19.4571 5.69996 19.4187 5.70001 19.38V17.55C5.70001 17.4704 5.73162 17.3941 5.78788 17.3379C5.84414 17.2816 5.92045 17.25 6.00001 17.25H13.245C13.3246 17.25 13.4009 17.2816 13.4571 17.3379C13.5134 17.3941 13.545 17.4704 13.545 17.55V19.38C13.5451 19.4187 13.5372 19.4571 13.522 19.4926C13.5067 19.5282 13.4844 19.5603 13.4563 19.587C13.4282 19.6137 13.395 19.6344 13.3587 19.6478C13.3224 19.6612 13.2837 19.667 13.245 19.665ZM6.21001 19.08H12.96V17.835H6.21001V19.08Z" fill="#6C6D70"/>
<path d="M13.245 22.605H12.525C12.4454 22.605 12.3691 22.5734 12.3128 22.5171C12.2566 22.4609 12.225 22.3846 12.225 22.305C12.225 22.2254 12.2566 22.1491 12.3128 22.0929C12.3691 22.0366 12.4454 22.005 12.525 22.005H13.245C13.3245 22.005 13.4008 22.0366 13.4571 22.0929C13.5134 22.1491 13.545 22.2254 13.545 22.305C13.545 22.3846 13.5134 22.4609 13.4571 22.5171C13.4008 22.5734 13.3245 22.605 13.245 22.605Z" fill="#6C6D70"/>
<path d="M9.95999 22.605H9.22499C9.14542 22.605 9.06912 22.5734 9.01286 22.5171C8.9566 22.4609 8.92499 22.3846 8.92499 22.305C8.92499 22.2254 8.9566 22.1491 9.01286 22.0929C9.06912 22.0366 9.14542 22.005 9.22499 22.005H9.95999C10.0396 22.005 10.1159 22.0366 10.1721 22.0929C10.2284 22.1491 10.26 22.2254 10.26 22.305C10.26 22.3846 10.2284 22.4609 10.1721 22.5171C10.1159 22.5734 10.0396 22.605 9.95999 22.605Z" fill="#6C6D70"/>
<path d="M6.66001 22.605H6.00001C5.92045 22.605 5.84414 22.5734 5.78788 22.5171C5.73162 22.4609 5.70001 22.3846 5.70001 22.305C5.70001 22.2254 5.73162 22.1491 5.78788 22.0929C5.84414 22.0366 5.92045 22.005 6.00001 22.005H6.73501C6.81458 22.005 6.89088 22.0366 6.94715 22.0929C7.00341 22.1491 7.03501 22.2254 7.03501 22.305C7.03501 22.3846 7.00341 22.4609 6.94715 22.5171C6.89088 22.5734 6.81458 22.605 6.73501 22.605H6.66001Z" fill="#6C6D70"/>
<path d="M13.245 25.17H12.525C12.4454 25.17 12.3691 25.1384 12.3128 25.0821C12.2566 25.0259 12.225 24.9496 12.225 24.87C12.2249 24.8313 12.2328 24.7929 12.248 24.7573C12.2633 24.7218 12.2856 24.6896 12.3137 24.663C12.3418 24.6363 12.375 24.6156 12.4113 24.6022C12.4476 24.5888 12.4863 24.583 12.525 24.585H13.245C13.2836 24.583 13.3223 24.5888 13.3587 24.6022C13.395 24.6156 13.4282 24.6363 13.4563 24.663C13.4843 24.6896 13.5067 24.7218 13.5219 24.7573C13.5372 24.7929 13.545 24.8313 13.545 24.87C13.545 24.9496 13.5134 25.0259 13.4571 25.0821C13.4008 25.1384 13.3245 25.17 13.245 25.17Z" fill="#6C6D70"/>
<path d="M9.95999 25.17H9.22499C9.14542 25.17 9.06912 25.1384 9.01286 25.0821C8.9566 25.0259 8.92499 24.9496 8.92499 24.87C8.92493 24.8313 8.93277 24.7929 8.94802 24.7573C8.96328 24.7218 8.98562 24.6896 9.01369 24.663C9.04177 24.6363 9.07498 24.6156 9.11131 24.6022C9.14764 24.5888 9.18632 24.583 9.22499 24.585H9.95999C9.99741 24.585 10.0345 24.5924 10.0691 24.6067C10.1036 24.621 10.135 24.642 10.1615 24.6685C10.188 24.6949 10.209 24.7263 10.2233 24.7609C10.2376 24.7955 10.245 24.8326 10.245 24.87C10.2451 24.947 10.2155 25.0211 10.1625 25.077C10.1094 25.1328 10.0369 25.1661 9.95999 25.17Z" fill="#6C6D70"/>
<path d="M6.66001 25.17H6.00001C5.92045 25.17 5.84414 25.1384 5.78788 25.0821C5.73162 25.0259 5.70001 24.9496 5.70001 24.87C5.69996 24.8313 5.7078 24.7929 5.72305 24.7573C5.7383 24.7218 5.76064 24.6896 5.78872 24.663C5.81679 24.6363 5.85001 24.6156 5.88634 24.6022C5.92266 24.5888 5.96134 24.583 6.00001 24.585H6.73501C6.77244 24.585 6.8095 24.5924 6.84408 24.6067C6.87866 24.621 6.91007 24.642 6.93654 24.6685C6.963 24.6949 6.984 24.7263 6.99832 24.7609C7.01264 24.7955 7.02001 24.8326 7.02001 24.87C7.02092 24.915 7.0117 24.9596 6.99303 25.0006C6.97435 25.0415 6.9467 25.0777 6.91213 25.1065C6.87756 25.1353 6.83694 25.156 6.7933 25.167C6.74966 25.178 6.70411 25.179 6.66001 25.17Z" fill="#6C6D70"/>
<path d="M13.245 27.7351H12.525C12.4454 27.7351 12.3691 27.7034 12.3128 27.6472C12.2566 27.5909 12.225 27.5146 12.225 27.4351C12.2249 27.3963 12.2328 27.358 12.248 27.3224C12.2633 27.2868 12.2856 27.2547 12.3137 27.228C12.3418 27.2014 12.375 27.1807 12.4113 27.1673C12.4476 27.1539 12.4863 27.148 12.525 27.1501H13.245C13.2836 27.148 13.3223 27.1539 13.3587 27.1673C13.395 27.1807 13.4282 27.2014 13.4563 27.228C13.4843 27.2547 13.5067 27.2868 13.5219 27.3224C13.5372 27.358 13.545 27.3963 13.545 27.4351C13.545 27.5146 13.5134 27.5909 13.4571 27.6472C13.4008 27.7034 13.3245 27.7351 13.245 27.7351Z" fill="#6C6D70"/>
<path d="M9.95999 27.7351H9.22499C9.14542 27.7351 9.06912 27.7034 9.01286 27.6472C8.9566 27.5909 8.92499 27.5146 8.92499 27.4351C8.92493 27.3963 8.93277 27.358 8.94802 27.3224C8.96328 27.2868 8.98562 27.2547 9.01369 27.228C9.04177 27.2014 9.07498 27.1807 9.11131 27.1673C9.14764 27.1539 9.18632 27.148 9.22499 27.1501H9.95999C10.0356 27.1501 10.1081 27.1801 10.1615 27.2335C10.215 27.287 10.245 27.3595 10.245 27.4351C10.2451 27.5121 10.2155 27.5862 10.1625 27.6421C10.1094 27.6979 10.0369 27.7312 9.95999 27.7351Z" fill="#6C6D70"/>
<path d="M6.66001 27.7351H6.00001C5.92045 27.7351 5.84414 27.7034 5.78788 27.6472C5.73162 27.5909 5.70001 27.5146 5.70001 27.4351C5.69996 27.3963 5.7078 27.358 5.72305 27.3224C5.7383 27.2868 5.76064 27.2547 5.78872 27.228C5.81679 27.2014 5.85001 27.1807 5.88634 27.1673C5.92266 27.1539 5.96134 27.148 6.00001 27.1501H6.73501C6.77244 27.1501 6.8095 27.1574 6.84408 27.1717C6.87866 27.1861 6.91007 27.2071 6.93654 27.2335C6.963 27.26 6.984 27.2914 6.99832 27.326C7.01264 27.3606 7.02001 27.3976 7.02001 27.4351C7.02092 27.48 7.0117 27.5247 6.99303 27.5656C6.97435 27.6066 6.9467 27.6428 6.91213 27.6716C6.87756 27.7004 6.83694 27.7211 6.7933 27.7321C6.74966 27.743 6.70411 27.7441 6.66001 27.7351Z" fill="#6C6D70"/>
<path d="M21.105 29.88C19.215 29.88 17.31 29.37 17.31 28.38C17.31 28.3004 17.3416 28.2241 17.3979 28.1678C17.4541 28.1116 17.5304 28.08 17.61 28.08C17.6896 28.08 17.7659 28.1116 17.8221 28.1678C17.8784 28.2241 17.91 28.3004 17.91 28.38C17.91 28.68 19.035 29.265 21.105 29.265C23.175 29.265 24.3 28.68 24.3 28.38C24.29 28.336 24.29 28.2904 24.3 28.2465C24.3101 28.2026 24.3299 28.1614 24.358 28.1262C24.3861 28.091 24.4218 28.0626 24.4624 28.043C24.503 28.0235 24.5474 28.0133 24.5925 28.0133C24.6376 28.0133 24.682 28.0235 24.7226 28.043C24.7632 28.0626 24.7989 28.091 24.827 28.1262C24.8551 28.1614 24.8749 28.2026 24.885 28.2465C24.895 28.2904 24.895 28.336 24.885 28.38C24.885 29.37 22.98 29.88 21.105 29.88Z" fill="#4A95D1"/>
<path d="M21.105 28.5C19.215 28.5 17.31 27.99 17.31 27C17.31 26.9204 17.3416 26.8441 17.3979 26.7878C17.4541 26.7316 17.5304 26.7 17.61 26.7C17.6896 26.7 17.7659 26.7316 17.8221 26.7878C17.8784 26.8441 17.91 26.9204 17.91 27C17.91 27.315 19.035 27.9 21.105 27.9C23.175 27.9 24.3 27.315 24.3 27C24.3039 26.923 24.3371 26.8505 24.393 26.7975C24.4488 26.7444 24.523 26.7149 24.6 26.715C24.6744 26.7186 24.7448 26.7498 24.7975 26.8025C24.8502 26.8551 24.8814 26.9255 24.885 27C24.885 27.915 22.98 28.5 21.105 28.5Z" fill="#4A95D1"/>
<path d="M21.105 29.91C19.215 29.91 17.31 29.4 17.31 28.41V27C17.31 26.9204 17.3416 26.8441 17.3979 26.7878C17.4541 26.7316 17.5304 26.7 17.61 26.7C17.6896 26.7 17.7659 26.7316 17.8221 26.7878C17.8784 26.8441 17.91 26.9204 17.91 27V28.5C17.91 28.8 19.035 29.4 21.105 29.4C23.175 29.4 24.3 28.8 24.3 28.5V27C24.3039 26.923 24.3371 26.8505 24.393 26.7975C24.4488 26.7444 24.523 26.7149 24.6 26.715C24.6744 26.7186 24.7448 26.7498 24.7975 26.8025C24.8502 26.8551 24.8814 26.9255 24.885 27V28.5C24.885 29.4 22.98 29.91 21.105 29.91Z" fill="#4A95D1"/>
<path d="M21.105 27C19.215 27 17.31 26.49 17.31 25.5C17.31 25.4204 17.3416 25.3441 17.3979 25.2878C17.4541 25.2316 17.5304 25.2 17.61 25.2C17.6896 25.2 17.7659 25.2316 17.8221 25.2878C17.8784 25.3441 17.91 25.4204 17.91 25.5C17.91 25.8 19.035 26.4 21.105 26.4C23.175 26.4 24.3 25.8 24.3 25.5C24.29 25.456 24.29 25.4104 24.3 25.3665C24.3101 25.3225 24.3299 25.2814 24.358 25.2462C24.3861 25.211 24.4218 25.1825 24.4624 25.163C24.503 25.1435 24.5474 25.1333 24.5925 25.1333C24.6376 25.1333 24.682 25.1435 24.7226 25.163C24.7632 25.1825 24.7989 25.211 24.827 25.2462C24.8551 25.2814 24.8749 25.3225 24.885 25.3665C24.895 25.4104 24.895 25.456 24.885 25.5C24.885 26.43 22.98 27 21.105 27Z" fill="#4A95D1"/>
<path d="M21.105 28.5C19.215 28.5 17.31 27.99 17.31 27V25.5C17.31 25.4204 17.3416 25.3441 17.3979 25.2878C17.4541 25.2316 17.5304 25.2 17.61 25.2C17.6896 25.2 17.7659 25.2316 17.8221 25.2878C17.8784 25.3441 17.91 25.4204 17.91 25.5V27C17.91 27.315 19.035 27.9 21.105 27.9C23.175 27.9 24.3 27.315 24.3 27V25.5C24.29 25.456 24.29 25.4104 24.3 25.3665C24.3101 25.3225 24.3299 25.2814 24.358 25.2462C24.3861 25.211 24.4218 25.1825 24.4624 25.163C24.503 25.1435 24.5474 25.1333 24.5925 25.1333C24.6376 25.1333 24.682 25.1435 24.7226 25.163C24.7632 25.1825 24.7989 25.211 24.827 25.2462C24.8551 25.2814 24.8749 25.3225 24.885 25.3665C24.895 25.4104 24.895 25.456 24.885 25.5V27C24.885 27.93 22.98 28.5 21.105 28.5Z" fill="#4A95D1"/>
<path d="M21.105 25.5C19.215 25.5 17.31 24.99 17.31 24C17.31 22.035 24.885 22.035 24.885 24C24.885 24.975 22.98 25.5 21.105 25.5ZM21.105 23.115C19.035 23.115 17.91 23.7 17.91 24.015C17.91 24.33 19.035 24.915 21.105 24.915C23.175 24.915 24.3 24.315 24.3 24.015C24.3 23.715 23.175 23.1 21.105 23.1V23.115Z" fill="#4A95D1"/>
<path d="M21.105 27C19.215 27 17.31 26.49 17.31 25.5V24C17.31 23.9204 17.3416 23.8441 17.3979 23.7878C17.4541 23.7316 17.5304 23.7 17.61 23.7C17.6896 23.7 17.7659 23.7316 17.8221 23.7878C17.8784 23.8441 17.91 23.9204 17.91 24V25.5C17.91 25.815 19.035 26.4 21.105 26.4C23.175 26.4 24.3 25.815 24.3 25.5V24C24.29 23.956 24.29 23.9104 24.3 23.8665C24.3101 23.8225 24.3299 23.7814 24.358 23.7462C24.3861 23.711 24.4218 23.6825 24.4624 23.663C24.503 23.6435 24.5474 23.6333 24.5925 23.6333C24.6376 23.6333 24.682 23.6435 24.7226 23.663C24.7632 23.6825 24.7989 23.711 24.827 23.7462C24.8551 23.7814 24.8749 23.8225 24.885 23.8665C24.895 23.9104 24.895 23.956 24.885 24V25.5C24.885 26.475 22.98 27 21.105 27Z" fill="#4A95D1"/>
<path d="M27.36 28.5C26.362 28.5287 25.3681 28.3605 24.435 28.005C24.3631 27.9694 24.3076 27.9076 24.2797 27.8323C24.2518 27.757 24.2537 27.674 24.285 27.6C24.3026 27.5644 24.327 27.5326 24.3569 27.5065C24.3868 27.4804 24.4216 27.4605 24.4593 27.4479C24.497 27.4354 24.5368 27.4304 24.5764 27.4334C24.616 27.4363 24.6546 27.4471 24.69 27.465C25.5432 27.784 26.4495 27.9367 27.36 27.915C29.415 27.915 30.555 27.315 30.555 27.015C30.555 26.715 29.415 26.115 27.36 26.115C26.4663 26.0877 25.5756 26.2302 24.735 26.535C24.6998 26.5523 24.6614 26.5621 24.6222 26.5638C24.583 26.5656 24.5439 26.5592 24.5073 26.5451C24.4707 26.531 24.4374 26.5096 24.4095 26.482C24.3815 26.4545 24.3596 26.4215 24.345 26.385C24.3278 26.3498 24.3179 26.3114 24.3162 26.2722C24.3145 26.233 24.3209 26.1939 24.3349 26.1573C24.349 26.1207 24.3705 26.0874 24.398 26.0595C24.4256 26.0316 24.4586 26.0096 24.495 25.995C25.4099 25.6495 26.3822 25.4815 27.36 25.5C29.235 25.5 31.14 26.01 31.14 27C31.14 27.99 29.235 28.5 27.36 28.5Z" fill="#4A95D1"/>
<path d="M27.36 30C26.2269 30.0566 25.099 29.8134 24.09 29.295C24.0257 29.252 23.9805 29.186 23.9637 29.1105C23.9469 29.0351 23.9599 28.9561 24 28.89C24.0456 28.8246 24.1143 28.779 24.1923 28.7623C24.2702 28.7456 24.3516 28.759 24.42 28.8C25.3493 29.2619 26.3845 29.4689 27.42 29.4C29.475 29.4 30.615 28.815 30.615 28.5V27C30.605 26.956 30.605 26.9104 30.615 26.8665C30.6251 26.8225 30.6449 26.7814 30.673 26.7462C30.7011 26.711 30.7367 26.6825 30.7773 26.663C30.8179 26.6435 30.8624 26.6333 30.9075 26.6333C30.9525 26.6333 30.997 26.6435 31.0376 26.663C31.0782 26.6825 31.1139 26.711 31.142 26.7462C31.1701 26.7814 31.1899 26.8225 31.1999 26.8665C31.21 26.9104 31.21 26.956 31.2 27V28.5C31.14 29.43 29.235 30 27.36 30Z" fill="#4A95D1"/>
</svg>
