<svg width="36" height="36" viewBox="0 0 36 36" fill="none" xmlns="http://www.w3.org/2000/svg">
<path d="M27 24.33C26.9366 24.3506 26.8683 24.3506 26.805 24.33C26.7752 24.3008 26.7517 24.2657 26.7362 24.2269C26.7207 24.1882 26.7135 24.1467 26.715 24.105V9.67496C26.7142 9.60261 26.7395 9.5324 26.7864 9.47727C26.8332 9.42214 26.8984 9.3858 26.97 9.37496C30.435 8.90996 30.66 8.38496 30.66 8.36996C30.48 7.84496 26.16 6.86996 18.03 6.86996C9.89998 6.86996 5.57998 7.82996 5.39998 8.36996C5.39998 8.36996 5.63998 8.99996 8.99998 9.37496C9.07151 9.3858 9.13672 9.42214 9.18358 9.47727C9.23044 9.5324 9.25579 9.60261 9.25498 9.67496V24C9.25645 24.0417 9.2492 24.0832 9.2337 24.1219C9.21821 24.1607 9.1948 24.1958 9.16498 24.225C9.08733 24.2524 9.00262 24.2524 8.92497 24.225C5.20498 23.715 4.72498 23.115 4.72498 22.635C4.72498 22.155 5.45998 21.81 5.99998 21.63C6.07556 21.6064 6.1574 21.6137 6.22765 21.6502C6.29789 21.6867 6.35085 21.7495 6.37498 21.825C6.39853 21.9005 6.39126 21.9824 6.35473 22.0526C6.3182 22.1229 6.25539 22.1758 6.17998 22.2C5.39998 22.44 5.30998 22.635 5.30998 22.635C5.30998 22.635 5.56498 23.13 8.66998 23.58V9.92996C5.17498 9.43496 4.72498 8.84996 4.72498 8.42996C4.72498 6.35996 17.805 6.32996 17.94 6.32996C18.075 6.32996 31.155 6.32996 31.155 8.42996C31.155 8.89496 30.705 9.47996 27.21 9.92996V23.6849C30.3 23.25 30.555 22.755 30.57 22.725C30.57 22.725 30.465 22.545 29.7 22.305C29.6306 22.2762 29.5745 22.2226 29.5428 22.1545C29.5111 22.0865 29.5061 22.009 29.5287 21.9374C29.5513 21.8659 29.5999 21.8053 29.6649 21.7679C29.73 21.7304 29.8067 21.7186 29.88 21.735C30.42 21.915 31.155 22.2 31.155 22.74C31.155 23.28 30.675 23.82 26.955 24.33H27Z" fill="#6C6D70"/>
<path d="M28.05 21.9C25.1847 21.4728 22.2919 21.2572 19.395 21.255C19.3193 21.2479 19.2487 21.2135 19.1963 21.1584C19.1439 21.1032 19.1133 21.031 19.11 20.955C19.11 20.8755 19.1416 20.7992 19.1979 20.7429C19.2541 20.6866 19.3304 20.655 19.41 20.655C22.3322 20.6616 25.25 20.8821 28.14 21.315C28.2172 21.3296 28.2856 21.374 28.3305 21.4385C28.3754 21.503 28.3931 21.5825 28.38 21.66C28.3767 21.6986 28.3651 21.736 28.3461 21.7697C28.3271 21.8034 28.3011 21.8326 28.2698 21.8554C28.2385 21.8781 28.2027 21.8939 28.1647 21.9016C28.1268 21.9093 28.0877 21.9088 28.05 21.9Z" fill="#6C6D70"/>
<path d="M7.95 21.9C7.88076 21.9042 7.81253 21.8817 7.75947 21.837C7.70641 21.7923 7.67258 21.7289 7.665 21.66C7.65184 21.5825 7.66962 21.5029 7.7145 21.4384C7.75938 21.3739 7.82778 21.3296 7.905 21.315C10.81 20.8817 13.7428 20.6611 16.68 20.655C16.72 20.6528 16.7599 20.6591 16.7973 20.6734C16.8347 20.6877 16.8686 20.7097 16.8969 20.738C16.9253 20.7663 16.9473 20.8003 16.9616 20.8376C16.9759 20.875 16.9822 20.915 16.98 20.955C16.9764 21.0333 16.9436 21.1075 16.8881 21.163C16.8326 21.2185 16.7584 21.2513 16.68 21.255C13.7731 21.2573 10.8703 21.4728 7.995 21.9H7.95Z" fill="#6C6D70"/>
<path d="M30.915 23.04C30.8381 23.0361 30.7656 23.0028 30.7125 22.947C30.6594 22.8911 30.6299 22.817 30.63 22.74V8.38497C30.62 8.34104 30.62 8.29541 30.63 8.25148C30.6401 8.20755 30.6599 8.16645 30.688 8.13123C30.7161 8.096 30.7518 8.06756 30.7924 8.04801C30.833 8.02846 30.8774 8.01831 30.9225 8.01831C30.9676 8.01831 31.012 8.02846 31.0526 8.04801C31.0932 8.06756 31.1289 8.096 31.157 8.13123C31.1851 8.16645 31.2049 8.20755 31.215 8.25148C31.225 8.29541 31.225 8.34104 31.215 8.38497V22.74C31.215 22.8195 31.1834 22.8959 31.1271 22.9521C31.0709 23.0084 30.9946 23.04 30.915 23.04Z" fill="#6C6D70"/>
<path d="M5.08503 23.22C5.00546 23.22 4.92916 23.1884 4.87289 23.1322C4.81663 23.0759 4.78503 22.9996 4.78503 22.92V8.56503C4.77501 8.52109 4.77503 8.47547 4.78506 8.43154C4.7951 8.38761 4.81491 8.34651 4.84301 8.31128C4.87111 8.27605 4.90678 8.24761 4.94738 8.22806C4.98798 8.20852 5.03247 8.19836 5.07753 8.19836C5.12259 8.19836 5.16707 8.20852 5.20767 8.22806C5.24827 8.24761 5.28394 8.27605 5.31205 8.31128C5.34015 8.34651 5.35995 8.38761 5.36999 8.43154C5.38003 8.47547 5.38004 8.52109 5.37003 8.56503V22.92C5.37012 22.9971 5.34058 23.0712 5.28753 23.127C5.23447 23.1829 5.16196 23.2162 5.08503 23.22Z" fill="#6C6D70"/>
<path d="M19.125 16.065C19.0863 16.067 19.0476 16.0612 19.0113 16.0477C18.975 16.0343 18.9418 16.0137 18.9137 15.987C18.8856 15.9603 18.8633 15.9282 18.848 15.8926C18.8328 15.857 18.8249 15.8187 18.825 15.78V14.64H17.325V15.78C17.325 15.8595 17.2934 15.9359 17.2371 15.9921C17.1808 16.0484 17.1045 16.08 17.025 16.08C16.9454 16.08 16.8691 16.0484 16.8128 15.9921C16.7566 15.9359 16.725 15.8595 16.725 15.78V14.28C16.725 14.2004 16.7566 14.1241 16.8128 14.0678C16.8691 14.0116 16.9454 13.98 17.025 13.98H19.185C19.2237 13.9799 19.262 13.9878 19.2976 14.003C19.3332 14.0183 19.3653 14.0406 19.392 14.0687C19.4187 14.0968 19.4393 14.13 19.4527 14.1663C19.4662 14.2026 19.472 14.2413 19.47 14.28V15.78C19.4742 15.824 19.4676 15.8683 19.4508 15.9091C19.4339 15.9499 19.4072 15.986 19.3732 16.0141C19.3391 16.0423 19.2987 16.0616 19.2554 16.0705C19.2121 16.0793 19.1674 16.0775 19.125 16.065Z" fill="#6C6D70"/>
<path d="M23.43 19.305H21.27C21.1905 19.305 21.1142 19.2734 21.0579 19.2171C21.0016 19.1608 20.97 19.0845 20.97 19.005V12.54C20.97 12.5012 20.9778 12.4629 20.9931 12.4273C21.0083 12.3917 21.0307 12.3596 21.0587 12.3329C21.0868 12.3063 21.12 12.2856 21.1564 12.2722C21.1927 12.2588 21.2314 12.2529 21.27 12.255H23.43C23.468 12.2528 23.5061 12.2587 23.5416 12.2722C23.5772 12.2858 23.6095 12.3067 23.6364 12.3336C23.6633 12.3605 23.6842 12.3928 23.6978 12.4284C23.7113 12.4639 23.7172 12.502 23.715 12.54V19.005C23.7171 19.0436 23.7112 19.0823 23.6978 19.1186C23.6844 19.155 23.6637 19.1882 23.6371 19.2163C23.6104 19.2443 23.5783 19.2667 23.5427 19.2819C23.5071 19.2972 23.4688 19.305 23.43 19.305ZM21.57 18.705H23.07V12.84H21.57V18.705Z" fill="#6C6D70"/>
<path d="M14.805 19.305H12.66C12.5804 19.305 12.5041 19.2734 12.4479 19.2171C12.3916 19.1609 12.36 19.0845 12.36 19.005V15.78C12.36 15.7004 12.3916 15.6241 12.4479 15.5678C12.5041 15.5116 12.5804 15.48 12.66 15.48H14.805C14.8846 15.48 14.9609 15.5116 15.0171 15.5678C15.0734 15.6241 15.105 15.7004 15.105 15.78V19.005C15.105 19.0845 15.0734 19.1609 15.0171 19.2171C14.9609 19.2734 14.8846 19.305 14.805 19.305ZM12.96 18.705H14.46V16.065H12.96V18.705Z" fill="#6C6D70"/>
<path d="M10.5 15.7049C10.4642 15.706 10.4285 15.6999 10.395 15.6871C10.3615 15.6742 10.3309 15.6548 10.305 15.6299C10.2759 15.6032 10.2527 15.5708 10.2368 15.5346C10.2209 15.4985 10.2127 15.4594 10.2127 15.4199C10.2127 15.3804 10.2209 15.3414 10.2368 15.3052C10.2527 15.2691 10.2759 15.2366 10.305 15.2099L13.5 11.6249C13.5302 11.5922 13.5677 11.5671 13.6093 11.5514C13.651 11.5358 13.6958 11.5302 13.74 11.5349L17.94 11.8799L22.155 8.71494C22.2034 8.68868 22.2575 8.67493 22.3125 8.67493C22.3675 8.67493 22.4217 8.68868 22.47 8.71494L25.335 10.2149C25.3873 10.2412 25.4308 10.2821 25.4601 10.3328C25.4895 10.3834 25.5033 10.4415 25.5 10.4999C25.4621 10.5654 25.4009 10.6142 25.3286 10.6365C25.2563 10.6587 25.1782 10.6528 25.11 10.6199L22.395 9.26994L18.225 12.4199C18.1567 12.4418 18.0833 12.4418 18.015 12.4199L13.86 12.1349L10.725 15.6149C10.6958 15.6448 10.6608 15.6682 10.622 15.6837C10.5833 15.6992 10.5417 15.7064 10.5 15.7049Z" fill="#6C6D70"/>
<path d="M23.37 29.415H22.77V26.535C22.7812 26.0883 22.6995 25.6442 22.53 25.2307C22.3605 24.8173 22.1069 24.4436 21.7854 24.1333C21.4638 23.823 21.0813 23.5829 20.6621 23.4283C20.2428 23.2737 19.796 23.2079 19.35 23.235H16.725C16.2797 23.2077 15.8335 23.2736 15.4151 23.4283C14.9966 23.5831 14.615 23.8234 14.2946 24.1339C13.9742 24.4444 13.7221 24.8183 13.5543 25.2318C13.3865 25.6452 13.3067 26.089 13.32 26.535V29.415H12.72V26.535C12.7112 26.0122 12.8098 25.4931 13.0095 25.0098C13.2092 24.5265 13.5059 24.0893 13.8812 23.7253C14.2566 23.3612 14.7026 23.0779 15.1917 22.893C15.6808 22.708 16.2027 22.6253 16.725 22.65H19.35C19.8736 22.6232 20.3971 22.7043 20.888 22.8883C21.3789 23.0723 21.8267 23.3552 22.2037 23.7195C22.5807 24.0839 22.8787 24.5218 23.0794 25.0061C23.28 25.4904 23.3789 26.0109 23.37 26.535V29.415Z" fill="#6C6D70"/>
<path d="M18 21.72C17.68 21.7123 17.3651 21.6372 17.076 21.4997C16.7868 21.3622 16.5299 21.1654 16.3219 20.922C16.1139 20.6786 15.9594 20.3941 15.8687 20.0871C15.7779 19.7801 15.7528 19.4574 15.795 19.14C15.7498 18.8251 15.7729 18.5041 15.8626 18.1988C15.9523 17.8935 16.1066 17.6111 16.315 17.3707C16.5234 17.1303 16.781 16.9374 17.0705 16.8053C17.3599 16.6731 17.6743 16.6047 17.9925 16.6047C18.3107 16.6047 18.6252 16.6731 18.9146 16.8053C19.204 16.9374 19.4617 17.1303 19.6701 17.3707C19.8785 17.6111 20.0327 17.8935 20.1225 18.1988C20.2122 18.5041 20.2352 18.8251 20.19 19.14C20.2321 19.4562 20.2075 19.7776 20.1176 20.0836C20.0277 20.3896 19.8746 20.6734 19.6682 20.9165C19.4618 21.1597 19.2067 21.3568 18.9193 21.4952C18.632 21.6336 18.3188 21.7102 18 21.72ZM18 17.145C16.815 17.145 16.395 18.18 16.395 19.14C16.395 20.1 16.815 21.12 18 21.12C19.185 21.12 19.59 20.1 19.59 19.14C19.59 18.18 19.23 17.145 18 17.145Z" fill="#6C6D70"/>
<path d="M21 29.685H15V28.635L14.685 26.16C14.6699 26.0401 14.6823 25.9184 14.7213 25.804C14.7603 25.6897 14.8248 25.5857 14.91 25.5C14.9834 25.4179 15.0737 25.3526 15.1747 25.3086C15.2756 25.2646 15.3849 25.2429 15.495 25.245H20.475C20.6764 25.2589 20.8646 25.3503 21 25.5C21.1414 25.6724 21.2112 25.8926 21.195 26.115L21 28.665V29.685ZM15.675 29.1H20.4V28.635L20.715 26.085C20.7286 26.0651 20.7358 26.0416 20.7358 26.0175C20.7358 25.9934 20.7286 25.9699 20.715 25.95C20.7014 25.9264 20.6817 25.907 20.6579 25.8938C20.6341 25.8806 20.6072 25.8741 20.58 25.875H15.495C15.4662 25.8765 15.438 25.884 15.4122 25.8969C15.3864 25.9098 15.3635 25.9279 15.345 25.95C15.3321 25.9941 15.3321 26.0409 15.345 26.085L15.66 28.59L15.675 29.1Z" fill="#6C6D70"/>
<path d="M23.79 29.715H12.3C12.2204 29.715 12.1441 29.6834 12.0879 29.6271C12.0316 29.5709 12 29.4946 12 29.415C12 29.3354 12.0316 29.2591 12.0879 29.2029C12.1441 29.1466 12.2204 29.115 12.3 29.115H23.79C23.8696 29.115 23.9459 29.1466 24.0021 29.2029C24.0584 29.2591 24.09 29.3354 24.09 29.415C24.09 29.4946 24.0584 29.5709 24.0021 29.6271C23.9459 29.6834 23.8696 29.715 23.79 29.715Z" fill="#6C6D70"/>
</svg>
